<?xml version="1.0" encoding="utf-8"?>
<!-- Generator: Adobe Illustrator 19.2.1, SVG Export Plug-In . SVG Version: 6.00 Build 0)  -->
<svg version="1.1" id="layer" xmlns="http://www.w3.org/2000/svg" xmlns:xlink="http://www.w3.org/1999/xlink" x="0px" y="0px"
	 viewBox="0 0 652 652" style="enable-background:new 0 0 652 652;" xml:space="preserve">
<style type="text/css">
	.st0{fill:#B5A169;}
	.st1{fill:#FFFFFF;}
	.st2{fill-rule:evenodd;clip-rule:evenodd;fill:#B5A169;}
	.st3{fill:#001F5B;}
	.st4{fill-rule:evenodd;clip-rule:evenodd;fill:#001F5B;}
	.st5{fill:none;stroke:#FFFFFF;stroke-width:1.7364;}
</style>
<g>
	<path class="st0" d="M320.3,75.1c-135.7,0-246.2,110.4-246.2,246.2c0,135.7,110.4,246.2,246.2,246.2
		c135.7,0,246.2-110.4,246.2-246.2C566.5,185.5,456.1,75.1,320.3,75.1"/>
	<path class="st1" d="M321.5,442.9l2.5-0.9c3-1,12.8-4.6,25.1-11.8c30.1-17.5,75.3-61,75.3-135.8l0.4-65.3h-50.6l-0.1-2.4l-0.5-12.7
		c-0.3-3.5-2.4-5.2-3.2-6.2c-0.8-1-2.2-2.7-2.2-4l-0.8-7.9c0,0,0.7-3.6,2.3-4.8c1.6-1.2,3.7-5.1,3.1-7.4v-5l-33.8,0.2V169h-34.3
		l-0.2,9.3l-33.8,0.4v5c-0.5,2.2,1.5,4.8,3.1,6c1.6,1.2,2.3,6.1,2.3,6.1l-0.8,7.9c0,1.2-1.4,3-2.2,4c-0.8,1-3,2.7-3.3,6.2l-0.5,12.7
		l0.4,2.4h-51l-0.4,65.3c0,74,44.8,117.5,74.9,135.3c12.8,7.5,22.9,11.3,26,12.3L321.5,442.9z"/>
	<path class="st2" d="M238.8,355.5c-9.7-22.6-11.6-35.8-11.9-58.3h188.6c0,18-2.9,36.1-12,58.3L238.8,355.5z"/>
	<path class="st1" d="M458.9,382.7c-2.9-1.7-2-1.2-7.2-4.3c7.8-14,14.1-39.7,15-50.1c-4.9,5.2-12.5,10.3-19.7,17.7
		c-1.1-3.7-2.8-16.7-7.7-24.7c-3.8,22.4-22.8,55.5-26.2,62.2c-1.7,3.4-1.7,3.4,2.3,6l2.8,4.5c-24.4,25.6-47.6,38.9-71.5,41.3
		c-12.6,7.2-20.1,7.9-23.1,8.9l-2.5,0.9l-2.5-0.9c-3.1-1.1-10.2-1.4-23.2-9c-25.8-2.4-50.6-18.2-71.3-42.4l6.5-5.9
		c2.8-1.8,0.6-1.2,0-2.2c-4-6.3-23.4-38.4-27.1-60.8c-4.9,8-7,18.3-8.2,22c-7.2-7.4-13.1-13.3-18-18.5c0.9,10.3,6,36.8,13.8,50.9
		c-5.2,3.2-4.3,2.6-7.2,4.3c-2.9,1.7-4,3.7-0.6,9.8c23.8,41.5,59.6,64.1,108.4,77.2c0,3.2-2.7,5.7,3.7,6.9
		c6.3,1.2,14.1,1.7,25.9,1.7c11.8,0,19.6-0.6,26-1.7c6.3-1.1,3.7-3.7,3.7-6.9c48.9-13.1,84.6-35.7,108.5-77.2
		C463,386.4,461.8,384.4,458.9,382.7"/>
	<path class="st3" d="M320.3,77.7c134.5,0,243.5,109,243.5,243.5c0,134.5-109,243.5-243.5,243.5c-134.5,0-243.5-109-243.5-243.5
		C76.8,186.8,185.9,77.7,320.3,77.7 M320.3,71.3c-137.8,0-250,112.2-250,250c0,137.8,112.2,250,250,250c137.8,0,250-112.2,250-250
		C570.3,183.4,458.2,71.3,320.3,71.3"/>
	<path class="st3" d="M253.3,348.1h-13.5v-13.5h13.5V348.1z M253.3,318.3h-13.5v-13.5h13.5V318.3z M268.2,333.2h-13.5v-13.5h13.5
		V333.2z M283.1,348.1h-13.5v-13.5h13.5V348.1z M283.1,318.3h-13.5v-13.5h13.5V318.3z M298,333.2h-13.5v-13.5H298V333.2z
		 M312.9,348.1h-13.5v-13.5h13.5V348.1z M312.9,318.3h-13.5v-13.5h13.5V318.3z M327.8,333.2h-13.5v-13.5h13.5V333.2z M342.7,348.1
		h-13.5v-13.5h13.5V348.1z M342.7,318.3h-13.5v-13.5h13.5V318.3z M357.6,333.2h-13.5v-13.5h13.5V333.2z M372.5,348.1H359v-13.5h13.5
		V348.1z M372.5,318.3H359v-13.5h13.5V318.3z M387.4,333.2h-13.5v-13.5h13.5V333.2z M402.3,348.1h-13.5v-13.5h13.5V348.1z
		 M402.3,318.3h-13.5v-13.5h13.5V318.3z"/>
	<rect x="329.2" y="304.8" class="st3" width="13.5" height="13.5"/>
	<rect x="329.2" y="334.6" class="st3" width="13.5" height="13.5"/>
	<rect x="344.1" y="319.7" class="st3" width="13.5" height="13.5"/>
	<rect x="359" y="304.8" class="st3" width="13.5" height="13.5"/>
	<rect x="359" y="334.6" class="st3" width="13.5" height="13.5"/>
	<rect x="373.9" y="319.7" class="st3" width="13.5" height="13.5"/>
	<rect x="388.8" y="304.8" class="st3" width="13.5" height="13.5"/>
	<rect x="388.8" y="334.6" class="st3" width="13.5" height="13.5"/>
	<rect x="239.8" y="304.8" class="st3" width="13.5" height="13.5"/>
	<rect x="239.8" y="334.6" class="st3" width="13.5" height="13.5"/>
	<rect x="284.5" y="319.7" class="st3" width="13.5" height="13.5"/>
	<rect x="269.6" y="304.8" class="st3" width="13.5" height="13.5"/>
	<rect x="269.6" y="334.6" class="st3" width="13.5" height="13.5"/>
	<rect x="299.4" y="304.8" class="st3" width="13.5" height="13.5"/>
	<rect x="299.4" y="334.6" class="st3" width="13.5" height="13.5"/>
	<rect x="314.3" y="319.7" class="st3" width="13.5" height="13.5"/>
	<rect x="254.7" y="319.7" class="st3" width="13.5" height="13.5"/>
	<path class="st3" d="M382,297.4h4.1l0-13.2c-1.3,0.8-2.7,1.5-4.1,2L382,297.4z"/>
	<path class="st3" d="M257.1,297.4h4.1l0-10.6c-1.4-0.4-2.8-1-4.1-1.7L257.1,297.4z"/>
	<path class="st3" d="M323.3,368.1v-12.6h-4.6v12.6c0.8-0.1,1.5-0.2,2.3-0.2C321.8,367.9,322.5,368,323.3,368.1"/>
	<path class="st3" d="M417.4,236H225.2v61.4c0,100.3,85.6,132.9,95.4,136.3l0.8,0.3l0.8-0.3c9.7-3.4,95-35.8,95.4-135.7v-60.7
		L417.4,236z M413.1,297.4c0,7.9-0.7,15.3-1.8,22.4h-7.7v13.5h5.1c-4.7,19.1-13,34.7-22.7,47.5v-25.2h-3.9v30.1
		c-8.7,10.5-18.2,18.8-27.3,25.3l0.1-55.3h-4.1l-0.1,58.2c-11.7,7.8-21.9,12.4-27.5,14.7v-22.7c-0.8,0.1-1.5,0.2-2.3,0.2
		c-0.8,0-1.5-0.1-2.3-0.2v22.4c-5.7-2.3-15.4-6.8-26.3-14.1v-58.5h-4.1v55.7c-9-6.4-18.5-14.6-27.3-25l0.1-30.6h-3.9l-0.1,25.7
		c-9.8-12.9-18.3-28.6-23.1-48h5v-13.5h-7.5c-1-7.1-1.8-14.4-1.8-22.4v-56.9H257l0,11.5c1.3-0.7,2.7-1.3,4.1-1.7l0-9.8h27.2v56.9
		h4.1v-56.9h26.5l-0.1,56.9h4.1l0.1-56.9h27.8l0,56.9h4.1l0-56.9h27.2l0,10.2c1.4,0.5,2.8,1.2,4.1,2l0-12.2h26.9V297.4z"/>
	<path class="st3" d="M461.8,381.5c-3-1.8-2.1-1.2-7.4-4.5c8-14.5,13.2-43.3,14.1-54c-5,5.4-13.2,11.9-20.6,19.6
		c-1.2-3.8-4.1-17.5-9.1-25.8c-3.8,23.1-21.8,57.2-25.9,63.8c-4.1,6.5-2.6,8,1.5,10.7l2.1,1.5c-24.9,26.4-43.4,36.4-66.6,39.9
		c-12.8,7.5-23,11.2-26.1,12.3l-2.6,0.9l-2.5-0.9c-3.2-1.1-13.8-5-27.1-12.9c-23.5-4.2-42.7-15.1-63.9-40l4.7-2.7
		c2.9-1.9,0-6.7-0.6-7.7c-4.1-6.5-23.8-40-27.7-63.2c-5,8.3-7.9,20.2-9.1,24c-7.4-7.7-15.6-14.2-20.6-19.6
		c0.9,10.7,6.2,39.4,14.1,54c-5.3,3.3-4.4,2.7-7.4,4.5c-2.9,1.8-4.1,3.9-0.6,10.1c24.3,42.8,59.2,65.9,109.1,79.5
		c0,3.3-1.2,6.2,5.3,7.4c6.5,1.2,14.4,1.8,26.5,1.8c12.1,0,20.1-0.6,26.5-1.8c6.5-1.2,5.3-4.1,5.3-7.4
		c49.9-13.5,84.8-36.6,109.1-79.5C465.9,385.4,464.7,383.3,461.8,381.5 M440,330.5c3.2,6.2,5,15.4,6.2,19.6
		c5.3-4.1,13.2-11.3,16.2-14.2c-2.1,9.2-4.7,27.6-11.1,37.6c-6.2-3.8-8.2-5.6-11.2-7.7c-2.9-2.1-5-1.4-9.2,3.9
		c-4.1,5.3-8.2,8.6-12.6,11.9C425.3,368.7,438.2,341.5,440,330.5 M180.5,335.8c2.9,3,10.9,10.1,16.2,14.2c1.2-4.1,2.9-11.6,6.2-17.8
		c1.8,11,16.5,37.7,23.5,50.4c-4.4-3.3-9.6-9.3-13.7-14.6c-4.1-5.3-7-4.4-9.9-2.3c-2.9,2.1-5,3.9-11.2,7.7
		C185.2,363.4,182.6,345,180.5,335.8 M287.3,442.9c0.7,5.3,1.9,15.3,2.3,22.6c-48.8-10.2-86.1-42.4-102.9-72.5
		c-3.2-5.8-5.9-6.6-2-8.9c2.1-1.2,16.7-11,18.5-12.8c0.3-0.3,1-3.4,5,1.5c21.1,25.3,38.1,56.2,87.2,64.2
		C290.4,438.4,287,440.3,287.3,442.9 M350.6,451.8c-0.6,5.7-1.2,14.3-1.2,18.1c0,3.9-2.1,4.5-5,4.8c-2.9,0.3-15,1.5-23,1.5
		c-7.9,0-20-1.2-22.9-1.5c-2.9-0.3-5-0.9-5-4.8c0-3.8-0.6-12.4-1.2-18.1c-0.7-7-1.4-7.2,3.8-6.4c3.8,0.6,25.3,1.2,25.3,1.2
		s21.5-0.6,25.3-1.2C352,444.6,351.3,444.8,350.6,451.8 M456.1,393.1c-16.8,30.1-54,62.3-102.8,72.5c0.4-7.3,1.6-17.4,2.3-22.6
		c0.3-2.6-3.2-4.4-8.1-5.7c41.6-6.5,64.9-29.4,88.1-63.7c3.5-5.2,4.7-1.8,5-1.5c1.8,1.8,15.1,11,17.2,12.2
		C461.5,386.4,459.4,387.3,456.1,393.1"/>
	<path class="st3" d="M321.1,445.9l2.6-0.9c3.1-1.1,13.3-4.8,26.1-12.3c31.3-18.2,78.6-58.7,78.6-136.5v-70.2h-52.7l0.3-0.2
		l-0.6-13.2c-0.3-3.6-2.5-5.4-3.4-6.5c-0.8-1-2.2-2.8-2.2-4.1l-0.8-8.3c0,0,2.2-3.1,3.9-4.4c1.7-1.3,2.3-6,1.7-8.3v-5.2h-34v-10.1
		h-38.3v10.1h-34v5.2c-0.6,2.3,0,7,1.7,8.3c1.7,1.3,3.9,4.4,3.9,4.4l-0.8,8.3c0,1.3-1.4,3.1-2.2,4.1c-0.9,1-3.1,2.9-3.4,6.5
		l-0.5,13.2l0.1,0.2h-53.1v70.2c0,77.1,46.4,117.5,77.7,136c13.3,7.8,23.9,11.7,27.1,12.9L321.1,445.9z M369.8,225.9h-28.6l0.3-8.2
		h28L369.8,225.9z M369.3,212.8l0,1.1h-27.7l0-1.1c0.2-3.2,2.2-4.8,3-5.7c0.3-0.4,0.8-1,1.2-1.6h19.2c0.4,0.6,0.8,1.2,1.2,1.6
		C367.1,207.9,369,209.5,369.3,212.8 M345.7,196.4h18.1l0.4,5.2h-17.7L345.7,196.4z M340.3,182.3v-2.1h4.7v3h6.7v-3h5.2v3h6.7v-3
		h4.9v2.1c0.5,2.1,0,6.2-1.5,7.3c-0.9,0.7-2,2-2.7,2.9h-19.8c-0.7-0.9-1.8-2.2-2.7-2.9C340.3,188.5,339.8,184.4,340.3,182.3
		 M306.6,173.1v-1.8h6v3.4h5.6v-3.4h6.1v3.4h5.6v-3.4h6v1.8c0.5,2.1-2.3,6.2-3.8,7.3c-0.6,0.5-1.2,1.3-1.6,2H312
		c-0.4-0.7-0.9-1.5-1.6-2C308.9,179.3,306.1,175.1,306.6,173.1 M330.6,195.6h-18.6l0.6-9.4H330L330.6,195.6z M308.1,201.8v-3.5h4.7
		v3.5h5.2v-3.5h6.7v3.5h5.2v-3.5h4.7v3.5h4.9v-3.5h3.3l0.7,4.2c0,1.2-1.3,3-2.1,3.9c-0.8,1-3,2.7-3.2,6.2l-0.5,13.3h-9v-11
		c0-4-3.2-7.2-7.2-7.2c-4,0-7.2,3.2-7.2,7.2v11h-9l-0.5-13.3c-0.3-3.4-2.4-5.2-3.2-6.2c-0.8-1-2.1-2.7-2.1-3.9l0.7-4.2h3.3v3.5
		H308.1z M274.2,182.3v-2.1h5v3h6.7v-3h5.2v3h6.7v-3h4.7v2.1c0.5,2.1,0,6.2-1.5,7.3c-0.9,0.7-2,2-2.7,2.9h-19.8
		c-0.7-0.9-1.8-2.2-2.7-2.9C274.2,188.5,273.7,184.4,274.2,182.3 M297,196.4l-0.8,5.7h-17.7l0.4-5.7H297z M273.5,212.8
		c0.2-3.2,2.2-4.8,3-5.7c0.3-0.3,0.6-0.7,0.9-1.1h19.9c0.3,0.4,0.6,0.8,0.9,1.1c0.7,0.9,2.7,2.5,3,5.7l0,1.1h-27.7L273.5,212.8z
		 M273.3,217.7h28l0.3,8.2h-28.6L273.3,217.7z M220.2,296.2v-63.7h201.6v63.7c0,87.3-61.9,125.5-89,138c-5.6,2.6-9.7,4.1-11.5,4.7
		l-0.3,0.1l-0.5-0.2c-1.8-0.6-5.9-2.1-11.5-4.7C282,421.5,220.2,383.3,220.2,296.2"/>
	<path class="st4" d="M278.8,268.7c0,7-5.6,12.6-12.6,12.6c-7,0-12.6-5.6-12.6-12.6c0-7,5.7-12.6,12.6-12.6
		C273.2,256.1,278.8,261.7,278.8,268.7"/>
	<path class="st4" d="M388.2,268.7c0,7-5.6,12.6-12.6,12.6c-7,0-12.6-5.6-12.6-12.6c0-7,5.6-12.6,12.6-12.6
		C382.6,256.1,388.2,261.7,388.2,268.7"/>
	<path class="st4" d="M333.5,386.9c0,7-5.7,12.6-12.6,12.6c-7,0-12.6-5.6-12.6-12.6c0-7,5.7-12.6,12.6-12.6
		C327.8,374.3,333.5,379.9,333.5,386.9"/>
	<polygon class="st3" points="209.8,388.1 211.7,391.2 194.5,395.3 192.7,392.4 203.9,378.6 205.9,381.8 197,391.7 	"/>
	<polygon class="st3" points="218.7,404.1 212.9,397.4 210.3,399.7 215.6,405.9 213.4,407.8 208.1,401.7 204.8,404.5 210.9,411.5 
		208.6,413.5 200.3,403.9 212.9,392.8 221,402.2 	"/>
	<path class="st4" d="M224.4,410.1l-3.2,3.2l2.8,2.8c0.5,0.5,1,0.9,1.4,1.1c0.7,0.3,1.4,0.1,2.1-0.6c0.7-0.7,1-1.4,0.7-2.2
		c-0.1-0.4-0.5-0.9-1-1.4L224.4,410.1z M231.4,413.6c0.3,0.7,0.4,1.3,0.3,2c0,0.6-0.2,1.1-0.4,1.6c-0.2,0.5-0.6,1-1,1.5
		c-0.6,0.6-1.3,1-2.1,1.2c-0.8,0.3-1.7,0.2-2.5-0.3c0.3,0.7,0.4,1.5,0.2,2.1c-0.2,0.6-0.7,1.4-1.5,2.2l-0.8,0.8
		c-0.5,0.6-0.9,0.9-1,1.2c-0.2,0.4-0.3,0.8-0.2,1.1l-0.3,0.3l-2.7-2.7c0.2-0.3,0.3-0.6,0.5-0.8c0.3-0.4,0.6-0.8,0.9-1.1l1.1-1.1
		c0.7-0.8,1.1-1.4,1.1-1.9c0-0.5-0.4-1.1-1.1-1.9l-2.6-2.6l-4.6,4.7l-2.4-2.4l11.8-11.9l5.8,5.8C230.7,412.2,231.2,413,231.4,413.6"
		/>
	<polygon class="st3" points="229.6,433 226.8,430.9 236.6,417.3 239.4,419.3 	"/>
	<polygon class="st3" points="253.4,428.9 251.9,431.4 247.6,428.7 240.3,440.5 237.3,438.6 244.6,426.8 240.4,424.2 242,421.6 	"/>
	<path class="st4" d="M254,441.1l3.8,2l1.1-6.9L254,441.1z M259,431.9l3.5,1.8l-2.3,17.7l-3.4-1.7l0.6-3.6l-5.5-2.8l-2.6,2.5
		l-3.3-1.7L259,431.9z"/>
	<path class="st3" d="M268.4,449.2c-0.1,0.8-0.1,1.4,0.1,1.8c0.3,0.9,1.1,1.5,2.4,1.9c0.8,0.3,1.5,0.4,2,0.4c1,0,1.7-0.5,2-1.4
		c0.2-0.5,0.1-1-0.3-1.5c-0.4-0.4-1-0.9-1.9-1.5l-1.6-0.9c-1.5-0.9-2.6-1.7-3-2.3c-0.8-1.1-1-2.4-0.5-4c0.4-1.4,1.3-2.5,2.7-3.1
		c1.3-0.6,3-0.6,5,0.1c1.7,0.5,3,1.4,3.9,2.8c0.9,1.3,1.1,2.8,0.6,4.5l-3.2-1c0.3-1,0.1-1.8-0.6-2.5c-0.4-0.4-1-0.8-1.8-1
		c-0.9-0.3-1.6-0.3-2.2-0.1c-0.6,0.2-1,0.6-1.2,1.2c-0.2,0.6-0.1,1.1,0.4,1.5c0.3,0.3,0.9,0.7,1.9,1.4l2.5,1.6
		c1.1,0.7,1.9,1.4,2.4,2c0.7,1.1,0.8,2.3,0.4,3.7c-0.5,1.5-1.4,2.5-2.9,3.1c-1.4,0.6-3.1,0.6-5.2-0.1c-2.1-0.7-3.6-1.7-4.4-3
		c-0.9-1.4-1-2.9-0.5-4.5L268.4,449.2z"/>
	<polygon class="st3" points="373.8,436.5 377.2,435.2 377.8,453 374.7,454.2 363.5,440.5 367,439.2 374.9,449.8 	"/>
	<polygon class="st3" points="392,446.5 388.8,448 381.5,432.8 384.6,431.3 	"/>
	<path class="st4" d="M394.5,429.1l2.4,3.8l3.4-2.1c0.7-0.4,1.1-0.8,1.3-1.2c0.4-0.6,0.4-1.4-0.1-2.2c-0.5-0.9-1.2-1.3-1.9-1.2
		c-0.4,0-1,0.3-1.6,0.7L394.5,429.1z M399.6,423c0.7-0.1,1.3-0.1,2,0.2c0.5,0.2,1,0.4,1.5,0.7c0.5,0.3,0.9,0.8,1.2,1.3
		c0.4,0.7,0.7,1.5,0.7,2.3c0.1,0.9-0.2,1.7-0.8,2.5c0.8-0.2,1.5-0.1,2.1,0.3c0.6,0.3,1.2,1,1.8,2l0.6,1c0.4,0.6,0.7,1.1,0.9,1.3
		c0.3,0.3,0.7,0.5,1,0.5l0.2,0.3l-3.3,2.1c-0.3-0.3-0.5-0.5-0.7-0.6c-0.3-0.3-0.6-0.7-0.9-1.2l-0.8-1.3c-0.6-0.9-1.1-1.4-1.6-1.5
		c-0.5-0.1-1.2,0.1-2,0.6l-3.1,1.9l3.5,5.6l-2.9,1.8l-8.9-14.3l6.9-4.4C398,423.4,398.9,423.1,399.6,423"/>
	<polygon class="st3" points="414.6,409.8 416.6,412 412.8,415.3 421.8,425.8 419.2,428.1 410.1,417.6 406.3,421 404.4,418.7 	"/>
	<path class="st3" d="M418.2,406l2.5-2.5l7.4,7.2c0.8,0.8,1.5,1.3,2.1,1.5c1,0.4,1.9,0,2.9-1c1-1,1.3-2,0.9-3
		c-0.2-0.5-0.7-1.3-1.5-2.1l-7.4-7.2l2.5-2.6l7.4,7.2c1.3,1.2,2.1,2.4,2.4,3.5c0.6,2-0.1,4.1-2.1,6.2c-2,2.1-4,2.9-6.1,2.4
		c-1.1-0.3-2.3-1-3.6-2.3L418.2,406z"/>
	<path class="st3" d="M441.4,396.4c0.7,0.4,1.3,0.5,1.7,0.5c0.9,0,1.7-0.7,2.5-1.8c0.5-0.7,0.8-1.3,0.9-1.8c0.3-1,0-1.8-0.8-2.3
		c-0.5-0.3-1-0.4-1.5-0.1c-0.5,0.2-1.2,0.7-1.9,1.4l-1.3,1.2c-1.3,1.2-2.4,2-3.1,2.3c-1.3,0.5-2.6,0.3-3.9-0.7
		c-1.2-0.8-1.9-2-2.1-3.5c-0.2-1.5,0.3-3.1,1.5-4.8c1-1.4,2.3-2.4,3.7-2.9c1.5-0.5,3-0.2,4.5,0.7l-1.9,2.8c-0.9-0.5-1.7-0.6-2.5-0.1
		c-0.5,0.3-1.1,0.7-1.5,1.4c-0.5,0.7-0.8,1.4-0.8,2.1c0,0.7,0.2,1.2,0.8,1.5c0.5,0.3,1,0.4,1.6,0.1c0.4-0.2,1-0.6,1.8-1.4l2.2-2
		c1-0.9,1.9-1.4,2.6-1.7c1.2-0.4,2.4-0.1,3.7,0.7c1.2,0.9,1.9,2.1,2.1,3.7c0.1,1.6-0.4,3.2-1.6,5c-1.3,1.8-2.6,2.9-4.2,3.4
		c-1.5,0.5-3,0.2-4.4-0.8L441.4,396.4z"/>
	<path class="st3" d="M295.6,456.7l0.2-2.2c1,0,1.7,0,2.2,0c0.7-0.1,1.2-0.3,1.7-0.7c0.3-0.3,0.6-0.6,0.7-1.1
		c0.1-0.3,0.2-0.5,0.2-0.7l2.7,0.3l-1.4,16.6l-3.3-0.3l1-11.5L295.6,456.7z"/>
	<path class="st3" d="M319,456.1c-0.5,0.5-1.2,1.3-2.1,2.5c-0.9,1.2-1.7,2.4-2.4,3.7c-0.5,1-1,2.2-1.4,3.7c-0.5,1.5-0.7,2.7-0.7,3.6
		l-3.4-0.2c0.3-3,1.4-6,3.4-9.2c1.3-1.9,2.3-3.3,3.2-4l-8.2-0.5l0.2-2.9l11.7,0.6L319,456.1z"/>
	<path class="st4" d="M325.5,466.8c0.5,0.4,1.1,0.6,1.8,0.6c0.8,0,1.3-0.3,1.7-0.8c0.4-0.5,0.6-1.1,0.5-1.9c0-0.8-0.3-1.5-0.7-1.9
		c-0.5-0.4-1-0.6-1.8-0.6c-0.7,0-1.3,0.3-1.7,0.8c-0.4,0.5-0.6,1.1-0.5,2C324.8,465.8,325.1,466.4,325.5,466.8 M321.9,462.8
		c0.4-0.8,1-1.4,1.8-1.8c-0.8-0.5-1.4-1-1.7-1.6c-0.3-0.6-0.4-1.2-0.4-1.8c-0.1-1.2,0.3-2.3,1.2-3.2c0.9-0.9,2.1-1.4,3.8-1.5
		c1.6-0.1,2.9,0.3,3.9,1.1c0.9,0.8,1.5,1.8,1.5,3c0,0.5-0.1,1.2-0.3,1.8c-0.2,0.6-0.7,1.2-1.5,1.7c0.8,0.4,1.5,1,1.9,1.7
		c0.4,0.7,0.7,1.6,0.7,2.5c0.1,1.4-0.4,2.6-1.3,3.7c-1,1-2.4,1.6-4.2,1.7c-1.8,0.1-3.3-0.3-4.3-1.2c-1-1-1.5-2.1-1.6-3.5
		C321.4,464.4,321.5,463.6,321.9,462.8 M325.3,459.2c0.4,0.4,0.9,0.5,1.6,0.5c0.6,0,1.2-0.3,1.5-0.6c0.3-0.4,0.5-0.9,0.5-1.5
		c0-0.7-0.2-1.1-0.6-1.5c-0.4-0.3-0.9-0.5-1.6-0.5c-0.7,0.1-1.2,0.3-1.5,0.6c-0.4,0.4-0.5,0.9-0.5,1.6
		C324.8,458.4,325,458.9,325.3,459.2"/>
	<path class="st4" d="M346.7,454.4c-0.4,0.5-1,1.4-1.8,2.8c-0.8,1.3-1.4,2.6-1.8,4c-0.4,1.1-0.7,2.4-0.9,3.9
		c-0.2,1.5-0.3,2.7-0.2,3.7l-3.4,0.3c-0.2-3,0.5-6.2,2.1-9.5c1-2.1,1.9-3.6,2.6-4.4l-8.2,0.7l-0.2-2.9l11.7-1L346.7,454.4z"/>
	<path class="st3" d="M322,85C191.7,85,85.7,191,85.7,321.3c0,130.3,106,236.3,236.3,236.3c130.3,0,236.3-106,236.3-236.3
		C558.3,191,452.3,85,322,85 M535,275.9c6,10.8-0.6,22.6-5.4,26.3C523.9,289,529.9,280.1,535,275.9 M506.6,369.1
		c-0.5-6.5,1.9-17.1,15.4-22C522.3,350.2,516.8,366.4,506.6,369.1 M510.2,393.1c-2.4-6.1-3.3-16.8,8.1-25.6
		C520.7,373.1,520.8,386.6,510.2,393.1 M511.1,346.6c-0.5-6.5,1.8-17.1,15.3-22.1C526.6,327.6,521.2,343.9,511.1,346.6 M509.5,281.6
		c10.3,2.1,16.5,18.1,16.4,21.3C512.2,298.5,509.3,288.1,509.5,281.6 M521.6,313.8c-0.1-3.6,2.8-6.6,6.4-6.7
		c3.6-0.1,6.6,2.8,6.7,6.4c0.1,3.6-2.8,6.6-6.4,6.7C524.6,320.3,521.7,317.4,521.6,313.8 M526.8,252.8c7.4,9.9,2.4,22.4-1.8,26.8
		C517.6,267.2,522.4,257.5,526.8,252.8 M504.3,259.2c10.3,2.1,16.7,18,16.5,21.1C507,276.2,504.1,265.8,504.3,259.2 M516.4,260.1
		c-11.9-8.1-11.5-18.9-9.4-25.1C517.8,240.9,518.5,254.3,516.4,260.1 M490.7,321.3c0,93-75.7,168.6-168.7,168.6
		c-93,0-168.7-75.7-168.7-168.6c0-93,75.7-168.7,168.7-168.7C415,152.6,490.7,228.3,490.7,321.3 M137.3,234.9
		c2.1,6.2,2.4,17-9.4,25.1C125.8,254.3,126.5,240.9,137.3,234.9 M140.1,259.2c0.1,6.5-2.8,16.9-16.5,21.1
		C123.4,277.2,129.8,261.3,140.1,259.2 M122.3,347.1c13.5,4.9,15.9,15.5,15.4,22C127.6,366.4,122,350.2,122.3,347.1 M134.1,393.1
		c-10.5-6.5-10.5-20-8.1-25.6C137.4,376.3,136.5,387,134.1,393.1 M122.7,313.8c-0.1,3.6-3,6.5-6.7,6.4c-3.6-0.1-6.5-3.1-6.4-6.7
		c0.1-3.6,3-6.5,6.7-6.4C119.9,307.2,122.8,310.2,122.7,313.8 M118.4,302.9c-0.2-3.2,6.1-19.1,16.4-21.3
		C135,288.1,132.1,298.5,118.4,302.9 M133.2,346.6c-10.2-2.7-15.6-18.9-15.2-22.1C131.5,329.5,133.8,340,133.2,346.6 M117.5,252.8
		c4.5,4.8,9.3,14.5,1.8,26.8C115.1,275.2,110.1,262.7,117.5,252.8 M109.4,275.9c5.1,4.1,11.1,13.1,5.4,26.3
		C110,298.5,103.4,286.8,109.4,275.9 M107.6,350.9c-5.4-11.1,1.8-22.5,6.8-26C119.3,338.4,112.8,347,107.6,350.9 M118.1,347.7
		c6.7,12.7,1.5,22.1-3.2,26.6C108,364,113.6,351.8,118.1,347.7 M529.5,374.3c-4.7-4.5-10-13.9-3.3-26.6
		C530.7,351.8,536.3,364,529.5,374.3 M530,324.9c5,3.5,12.2,14.9,6.8,26C531.5,347,525,338.4,530,324.9"/>
	<path class="st1" d="M149.4,407.5c5.6-3.3,6.2-3.8,5-6.5l-0.9-2c0-0.7,1.2-1.4,2-1c2.6,3.8,5.6,8.3,8.7,13.6c3,5.1,4.4,8.8,5,11.8
		c0.9,4.4,0.1,9.8-5.3,13c-9.2,5.4-16.3-3.7-18.2-6.9c-0.4-0.7-0.7-1.3-1.1-2c0-0.6,0.8-1.3,1.4-1.1c4.4,4.1,8.3,3.2,12.4,0.8
		c4.1-2.4,7.2-7.3,4.1-12.7c-1.3-2.2-2-2-4.2-0.7l-23.6,13.9c-5.2,3.1-5.4,3.6-4.2,6.6l0.9,2.1c0.1,0.8-1.2,1.6-1.9,1.1
		c-1.9-3.4-3.6-6.4-5.3-9.3c-1.7-2.9-3.5-5.7-5.5-8.9c-0.1-0.9,1.2-1.7,1.8-1.2l1.3,1.5c2,2.4,2.6,2.6,7.8-0.5L149.4,407.5z"/>
	<path class="st5" d="M149.4,407.5c5.6-3.3,6.2-3.8,5-6.5l-0.9-2c0-0.7,1.2-1.4,2-1c2.6,3.8,5.6,8.3,8.7,13.6c3,5.1,4.4,8.8,5,11.8
		c0.9,4.4,0.1,9.8-5.3,13c-9.2,5.4-16.3-3.7-18.2-6.9c-0.4-0.7-0.7-1.3-1.1-2c0-0.6,0.8-1.3,1.4-1.1c4.4,4.1,8.3,3.2,12.4,0.8
		c4.1-2.4,7.2-7.3,4.1-12.7c-1.3-2.2-2-2-4.2-0.7l-23.6,13.9c-5.2,3.1-5.4,3.6-4.2,6.6l0.9,2.1c0.1,0.8-1.2,1.6-1.9,1.1
		c-1.9-3.4-3.6-6.4-5.3-9.3c-1.7-2.9-3.5-5.7-5.5-8.9c-0.1-0.9,1.2-1.7,1.8-1.2l1.3,1.5c2,2.4,2.6,2.6,7.8-0.5L149.4,407.5z"/>
	<path class="st1" d="M161.2,464.4c-4.6,3.9-4.7,4.6-3,7.3l1,1.7c0.1,0.7-1.1,1.6-1.8,1.4c-2.3-2.9-4.5-5.6-6.6-8.1
		c-2.2-2.5-4.5-5.2-7-7.9c-0.1-0.7,1.1-1.6,1.7-1.5l1.5,1.3c2.5,2.1,3.1,2.1,7.7-1.8l18.2-15.5c4.6-3.9,4.7-4.6,3-7.3l-1-1.7
		c-0.1-0.7,1.1-1.6,1.7-1.5c2.3,2.9,4.5,5.6,6.7,8.2c2.1,2.5,4.4,5.1,7,7.9c0.1,0.7-1.1,1.6-1.7,1.5l-1.5-1.3
		c-2.5-2.1-3.1-2.1-7.7,1.8L161.2,464.4z"/>
	<path class="st5" d="M161.2,464.4c-4.6,3.9-4.7,4.6-3,7.3l1,1.7c0.1,0.7-1.1,1.6-1.8,1.4c-2.3-2.9-4.5-5.6-6.6-8.1
		c-2.2-2.5-4.5-5.2-7-7.9c-0.1-0.7,1.1-1.6,1.7-1.5l1.5,1.3c2.5,2.1,3.1,2.1,7.7-1.8l18.2-15.5c4.6-3.9,4.7-4.6,3-7.3l-1-1.7
		c-0.1-0.7,1.1-1.6,1.7-1.5c2.3,2.9,4.5,5.6,6.7,8.2c2.1,2.5,4.4,5.1,7,7.9c0.1,0.7-1.1,1.6-1.7,1.5l-1.5-1.3
		c-2.5-2.1-3.1-2.1-7.7,1.8L161.2,464.4z"/>
	<path class="st1" d="M201.3,463.8c1-1.2,1.2-1.5-0.1-2.5l-3.4-2.7c-4-3.2-6.7-2.1-11.3,0.3c-0.9-0.2-1.8-1.2-1.6-2.1
		c3.9-2.6,6.7-5.5,8.7-7.1c0.3,0,0.7,0.1,1,0.4c0.3,0.2,0.5,0.5,0.6,0.8c-0.4,1.1-0.4,1.4,3.7,4.7l20.2,16.3
		c3.6,2.9,4.4,3.5,5.8,2.8c0.3,0.1,0.5,0.2,0.8,0.4c0.3,0.3,0.5,0.8,0.5,1c-1.9,1.3-5.6,5.1-7.8,8c-0.6,0.2-2.2-0.8-2.1-1.5
		c1.7-4,2.8-7-1.2-10.2l-3.3-2.6c-1.3-1-1.6-1-2.6,0.3l-17.9,22.2c-3.8,4.7-3.7,5.3-1.6,7.6l2,2c0.1,0.6-0.8,1.8-1.4,1.8
		c-3.4-2.9-6.1-5.2-8.6-7.1c-2.6-2.1-5.5-4.3-9.3-7.3c-0.2-0.7,0.7-1.8,1.4-1.8l2.6,1.7c2.7,1.6,3.3,1.5,7.1-3.2L201.3,463.8z"/>
	<path class="st5" d="M201.3,463.8c1-1.2,1.2-1.5-0.1-2.5l-3.4-2.7c-4-3.2-6.7-2.1-11.3,0.3c-0.9-0.2-1.8-1.2-1.6-2.1
		c3.9-2.6,6.7-5.5,8.7-7.1c0.3,0,0.7,0.1,1,0.4c0.3,0.2,0.5,0.5,0.6,0.8c-0.4,1.1-0.4,1.4,3.7,4.7l20.2,16.3
		c3.6,2.9,4.4,3.5,5.8,2.8c0.3,0.1,0.5,0.2,0.8,0.4c0.3,0.3,0.5,0.8,0.5,1c-1.9,1.3-5.6,5.1-7.8,8c-0.6,0.2-2.2-0.8-2.1-1.5
		c1.7-4,2.8-7-1.2-10.2l-3.3-2.6c-1.3-1-1.6-1-2.6,0.3l-17.9,22.2c-3.8,4.7-3.7,5.3-1.6,7.6l2,2c0.1,0.6-0.8,1.8-1.4,1.8
		c-3.4-2.9-6.1-5.2-8.6-7.1c-2.6-2.1-5.5-4.3-9.3-7.3c-0.2-0.7,0.7-1.8,1.4-1.8l2.6,1.7c2.7,1.6,3.3,1.5,7.1-3.2L201.3,463.8z"/>
	<path class="st1" d="M239.3,488.9c0.7-1.4,0.8-1.7-0.7-2.4l-3.9-1.8c-4.6-2.1-7-0.4-10.9,3c-0.9,0-2.1-0.7-2.1-1.6
		c3.2-3.4,5.2-6.9,6.7-9c0.3-0.1,0.7,0,1,0.1s0.6,0.4,0.8,0.6c-0.1,1.1-0.1,1.5,4.7,3.7l23.5,10.9c4.2,1.9,5.1,2.3,6.3,1.3
		c0.3,0,0.5,0,0.9,0.2c0.4,0.2,0.7,0.6,0.8,0.9c-1.6,1.7-4.2,6.3-5.6,9.7c-0.6,0.4-2.3-0.3-2.4-0.9c0.7-4.3,1.1-7.4-3.7-9.6
		l-3.8-1.8c-1.5-0.7-1.8-0.6-2.5,0.9l-12,25.9c-2.5,5.5-2.4,6.1,0.3,7.8l2.4,1.5c0.3,0.6-0.3,1.9-1,2.1c-4.1-2-7.2-3.6-10-4.9
		c-3-1.4-6.3-2.9-10.8-4.8c-0.3-0.6,0.3-1.9,1-2.1l3,1c3,0.9,3.6,0.7,6.1-4.8L239.3,488.9z"/>
	<path class="st5" d="M239.3,488.9c0.7-1.4,0.8-1.7-0.7-2.4l-3.9-1.8c-4.6-2.1-7-0.4-10.9,3c-0.9,0-2.1-0.7-2.1-1.6
		c3.2-3.4,5.2-6.9,6.7-9c0.3-0.1,0.7,0,1,0.1s0.6,0.4,0.8,0.6c-0.1,1.1-0.1,1.5,4.7,3.7l23.5,10.9c4.2,1.9,5.1,2.3,6.3,1.3
		c0.3,0,0.5,0,0.9,0.2c0.4,0.2,0.7,0.6,0.8,0.9c-1.6,1.7-4.2,6.3-5.6,9.7c-0.6,0.4-2.3-0.3-2.4-0.9c0.7-4.3,1.1-7.4-3.7-9.6
		l-3.8-1.8c-1.5-0.7-1.8-0.6-2.5,0.9l-12,25.9c-2.5,5.5-2.4,6.1,0.3,7.8l2.4,1.5c0.3,0.6-0.3,1.9-1,2.1c-4.1-2-7.2-3.6-10-4.9
		c-3-1.4-6.3-2.9-10.8-4.8c-0.3-0.6,0.3-1.9,1-2.1l3,1c3,0.9,3.6,0.7,6.1-4.8L239.3,488.9z"/>
	<path class="st1" d="M270.6,541.2c-6.3-1.4-9.8-3.9-11-5c-1-1.7-0.8-6.4,0.1-10.7c0.7-0.7,2.2-0.4,2.6,0.4
		c0.4,4.4,3.7,11.3,9.5,12.5c5,1.1,8.1-1.6,8.8-4.7c1.2-5.1-3.3-9.3-7-12.1c-4.4-3.4-8.8-8.4-7.5-14.6c1.6-7.1,8.6-10.8,18.5-8.5
		c2.2,0.5,5,1.4,7.5,2.7c0.8,0.5,1.4,0.7,2.2,1c0.2,1.5,0.1,5.1-0.8,9.3c-0.5,0.7-2.2,0.4-2.7-0.4c-0.4-3.5-2.3-8.8-7.2-9.9
		c-4.5-1-7.5,1.2-8.3,4.3c-0.7,2.9,1.5,6.2,4.6,8.6l4,3.2c3.8,3,8.3,7.9,6.7,14.9C288.9,540,280.9,543.5,270.6,541.2"/>
	<path class="st5" d="M270.6,541.2c-6.3-1.4-9.8-3.9-11-5c-1-1.7-0.8-6.4,0.1-10.7c0.7-0.7,2.2-0.4,2.6,0.4
		c0.4,4.4,3.7,11.3,9.5,12.5c5,1.1,8.1-1.6,8.8-4.7c1.2-5.1-3.3-9.3-7-12.1c-4.4-3.4-8.8-8.4-7.5-14.6c1.6-7.1,8.6-10.8,18.5-8.5
		c2.2,0.5,5,1.4,7.5,2.7c0.8,0.5,1.4,0.7,2.2,1c0.2,1.5,0.1,5.1-0.8,9.3c-0.5,0.7-2.2,0.4-2.7-0.4c-0.4-3.5-2.3-8.8-7.2-9.9
		c-4.5-1-7.5,1.2-8.3,4.3c-0.7,2.9,1.5,6.2,4.6,8.6l4,3.2c3.8,3,8.3,7.9,6.7,14.9C288.9,540,280.9,543.5,270.6,541.2z"/>
	<path class="st1" d="M305.8,513.6c0.1-6.5,0-7.3-2.9-7.6l-1.9-0.3c-0.6-0.3-0.7-2.3,0.3-2.3c5.3-0.2,10.4-0.4,17.4-0.3
		c6.7,0.1,11.1,0.9,14.2,2.6c3,1.7,4.7,4.5,4.7,8.3c-0.1,5.4-5.1,7.5-7.2,8c-0.7,0.1-1.4,0.4-1.4,0.7c0,0.2,0.3,0.4,1,0.5
		c5.5,1.2,10.1,4.6,10.1,10.9c0,6-3.9,9.4-8.3,10.8c-4.4,1.4-9.6,1.5-13.9,1.4c-2.5,0-5.2-0.3-7.2-0.4c-3.4-0.1-6.8,0-10.8,0
		c-0.6-0.4-0.5-2.1,0-2.3l2-0.4c3.1-0.5,3.6-1,3.7-6.8L305.8,513.6z M315.1,535c-0.1,5.1,0.6,8.2,6,8.3c5.2,0.1,7.9-3.6,8-8.8
		c0.1-5.6-3.3-9.6-10-9.8c-3.8-0.1-3.8,0-3.9,2.6L315.1,535z M315.3,520.1c0,1.7,0,1.8,3.7,1.9c6,0.1,8.3-3.4,8.3-7.3
		c0.1-5.6-3.6-8.5-8.4-8.6c-3.3-0.1-3.4,0.5-3.4,3.3L315.3,520.1z"/>
	<path class="st5" d="M305.8,513.6c0.1-6.5,0-7.3-2.9-7.6l-1.9-0.3c-0.6-0.3-0.7-2.3,0.3-2.3c5.3-0.2,10.4-0.4,17.4-0.3
		c6.7,0.1,11.1,0.9,14.2,2.6c3,1.7,4.7,4.5,4.7,8.3c-0.1,5.4-5.1,7.5-7.2,8c-0.7,0.1-1.4,0.4-1.4,0.7c0,0.2,0.3,0.4,1,0.5
		c5.5,1.2,10.1,4.6,10.1,10.9c0,6-3.9,9.4-8.3,10.8c-4.4,1.4-9.6,1.5-13.9,1.4c-2.5,0-5.2-0.3-7.2-0.4c-3.4-0.1-6.8,0-10.8,0
		c-0.6-0.4-0.5-2.1,0-2.3l2-0.4c3.1-0.5,3.6-1,3.7-6.8L305.8,513.6z M315.1,535c-0.1,5.1,0.6,8.2,6,8.3c5.2,0.1,7.9-3.6,8-8.8
		c0.1-5.6-3.3-9.6-10-9.8c-3.8-0.1-3.8,0-3.9,2.6L315.1,535z M315.3,520.1c0,1.7,0,1.8,3.7,1.9c6,0.1,8.3-3.4,8.3-7.3
		c0.1-5.6-3.6-8.5-8.4-8.6c-3.3-0.1-3.4,0.5-3.4,3.3L315.3,520.1z"/>
	<path class="st1" d="M348.6,511.7c-1.4-5.9-1.9-6.2-5.1-6l-1.8,0.1c-0.6-0.3-1-1.6-0.4-2.2c3.3-0.6,6.7-1.4,9.9-2.2
		c3.3-0.8,6.6-1.6,9.8-2.5c0.6,0.2,1,1.6,0.5,2.1l-1.6,0.6c-2.9,1.3-3.2,1.8-1.8,7.7l3.5,14.6c1.8,7.4,4.6,15.3,14.9,12.9
		c8.7-2.1,9.6-9.8,7.6-18.4l-1.8-7.6c-1.2-5.1-2.6-9.8-3.8-11.3c-0.9-1.2-2.5-1.2-4.4-1.1l-1.9,0.1c-0.7-0.4-0.8-1.7-0.5-2.1
		c3.7-0.7,6.3-1.3,9.1-2c2.5-0.6,5-1.3,7.5-2c0.5,0.3,0.9,1.5,0.5,2.1l-1.2,0.5c-1.7,0.8-2.9,1.5-3.2,3c-0.4,1.8,0.5,6.7,1.7,11.8
		l1.7,7.1c1.4,5.9,2.1,11.5-0.7,16.2c-2.3,3.7-6.9,6.4-12.3,7.7c-5.1,1.2-9.9,1.6-14.3-0.3c-4.2-1.9-6.8-6.2-8.4-13.1L348.6,511.7z"
		/>
	<path class="st5" d="M348.6,511.7c-1.4-5.9-1.9-6.2-5.1-6l-1.8,0.1c-0.6-0.3-1-1.6-0.4-2.2c3.3-0.6,6.7-1.4,9.9-2.2
		c3.3-0.8,6.6-1.6,9.8-2.5c0.6,0.2,1,1.6,0.5,2.1l-1.6,0.6c-2.9,1.3-3.2,1.8-1.8,7.7l3.5,14.6c1.8,7.4,4.6,15.3,14.9,12.9
		c8.7-2.1,9.6-9.8,7.6-18.4l-1.8-7.6c-1.2-5.1-2.6-9.8-3.8-11.3c-0.9-1.2-2.5-1.2-4.4-1.1l-1.9,0.1c-0.7-0.4-0.8-1.7-0.5-2.1
		c3.7-0.7,6.3-1.3,9.1-2c2.5-0.6,5-1.3,7.5-2c0.5,0.3,0.9,1.5,0.5,2.1l-1.2,0.5c-1.7,0.8-2.9,1.5-3.2,3c-0.4,1.8,0.5,6.7,1.7,11.8
		l1.7,7.1c1.4,5.9,2.1,11.5-0.7,16.2c-2.3,3.7-6.9,6.4-12.3,7.7c-5.1,1.2-9.9,1.6-14.3-0.3c-4.2-1.9-6.8-6.2-8.4-13.1L348.6,511.7z"
		/>
	<path class="st1" d="M402.6,496.7c-3.2-5.7-3.6-6.2-6.4-5.1l-1.8,0.7c-0.8,0.1-1.6-1.4-1-2c4.4-2.8,9-5.7,14.8-9
		c5.2-2.9,10-4.7,13-4.6c4.6-0.1,8,1.7,10,5.4c2.8,5,0.4,9.2-1.7,12.1c-0.4,0.6-0.3,1,0.4,1.4c8.3,5.3,13.1,8.2,17.3,8.8
		c2.2,0.3,4-0.2,5-0.7c0.7,0,1.2,0.8,1.1,1.3c-0.7,0.9-2.6,2.1-4.5,3.2c-5.6,3.1-10.2,3.2-15.1,0.7c-3.6-1.9-6.6-3.9-9.7-6.1
		c-1.6-1.1-2.8-1-4.3-0.2c-2.1,1.2-2.2,1.4-1.6,2.5l3.9,7c2.9,5.2,3.5,5.4,6.5,4.3l1.8-0.6c0.6,0,1.3,1.4,1.1,2
		c-3.3,1.7-6.1,3.2-9,4.8c-3,1.7-5.7,3.3-8.8,5.1c-0.7-0.1-1.4-1.4-1.1-2l1.5-1.2c2.5-2,2.6-2.6-0.3-7.8L402.6,496.7z M415,499.2
		c1.1,2,1.4,2,5,0c2.2-1.2,3.2-2.4,3.7-4.2c0.5-1.5,0.6-4-1.2-7.3c-2.9-5.1-7.9-6.6-12.7-3.9c-2.5,1.4-2.4,1.6-1,4.3L415,499.2z"/>
	<path class="st5" d="M402.6,496.7c-3.2-5.7-3.6-6.2-6.4-5.1l-1.8,0.7c-0.8,0.1-1.6-1.4-1-2c4.4-2.8,9-5.7,14.8-9
		c5.2-2.9,10-4.7,13-4.6c4.6-0.1,8,1.7,10,5.4c2.8,5,0.4,9.2-1.7,12.1c-0.4,0.6-0.3,1,0.4,1.4c8.3,5.3,13.1,8.2,17.3,8.8
		c2.2,0.3,4-0.2,5-0.7c0.7,0,1.2,0.8,1.1,1.3c-0.7,0.9-2.6,2.1-4.5,3.2c-5.6,3.1-10.2,3.2-15.1,0.7c-3.6-1.9-6.6-3.9-9.7-6.1
		c-1.6-1.1-2.8-1-4.3-0.2c-2.1,1.2-2.2,1.4-1.6,2.5l3.9,7c2.9,5.2,3.5,5.4,6.5,4.3l1.8-0.6c0.6,0,1.3,1.4,1.1,2
		c-3.3,1.7-6.1,3.2-9,4.8c-3,1.7-5.7,3.3-8.8,5.1c-0.7-0.1-1.4-1.4-1.1-2l1.5-1.2c2.5-2,2.6-2.6-0.3-7.8L402.6,496.7z M415,499.2
		c1.1,2,1.4,2,5,0c2.2-1.2,3.2-2.4,3.7-4.2c0.5-1.5,0.6-4-1.2-7.3c-2.9-5.1-7.9-6.6-12.7-3.9c-2.5,1.4-2.4,1.6-1,4.3L415,499.2z"/>
	<path class="st1" d="M484.1,467.6c1.8,2,2.8,2.9,4,2.2c0.4,0,1.1,0.9,0.9,1.3c-0.7,0.9-1.9,2.3-2.9,4c-1.3,2.2-5.2,6.8-8,9.5
		c-3.5,3.2-6.8,5.6-11.6,7.6c-8.1,3.3-17,1.7-23.3-5.1c-5.5-6-7.4-13.9-4.2-22.7c1.9-5,5.3-9.5,9.7-13.5c5.7-5.2,9.6-6.7,11.2-8.2
		c1.5,1.3,4.6,4.6,7.8,7c0.3,0.7-1.1,2-1.9,1.9c-5.8-3-11.1-2.3-15.8,2.1c-8.2,7.5-6.3,17.4,0.6,25c6.3,6.8,12.5,8.6,17.8,7.6
		c3.9-0.7,6.8-2.9,8.7-4.6c2.9-2.7,3.1-3.8,0.2-6.9l-2.8-3c-2.4-2.6-2.9-2.6-5.7-0.7l-2.5,1.8c-0.8,0.2-1.8-0.9-1.5-1.7
		c3.7-3.2,6.3-5.5,8.8-7.8c2.5-2.3,4.9-4.6,6.6-6.3c0.7-0.1,1.7,1,1.5,1.7l-1,1.3c-1.3,1.7-1.2,2.4,1.2,5L484.1,467.6z"/>
	<path class="st5" d="M484.1,467.6c1.8,2,2.8,2.9,4,2.2c0.4,0,1.1,0.9,0.9,1.3c-0.7,0.9-1.9,2.3-2.9,4c-1.3,2.2-5.2,6.8-8,9.5
		c-3.5,3.2-6.8,5.6-11.6,7.6c-8.1,3.3-17,1.7-23.3-5.1c-5.5-6-7.4-13.9-4.2-22.7c1.9-5,5.3-9.5,9.7-13.5c5.7-5.2,9.6-6.7,11.2-8.2
		c1.5,1.3,4.6,4.6,7.8,7c0.3,0.7-1.1,2-1.9,1.9c-5.8-3-11.1-2.3-15.8,2.1c-8.2,7.5-6.3,17.4,0.6,25c6.3,6.8,12.5,8.6,17.8,7.6
		c3.9-0.7,6.8-2.9,8.7-4.6c2.9-2.7,3.1-3.8,0.2-6.9l-2.8-3c-2.4-2.6-2.9-2.6-5.7-0.7l-2.5,1.8c-0.8,0.2-1.8-0.9-1.5-1.7
		c3.7-3.2,6.3-5.5,8.8-7.8c2.5-2.3,4.9-4.6,6.6-6.3c0.7-0.1,1.7,1,1.5,1.7l-1,1.3c-1.3,1.7-1.2,2.4,1.2,5L484.1,467.6z"/>
	<path class="st1" d="M492.2,434.4c-1.5,2.4-1.5,2.5,0.1,3.5l7.9,4.9c5.1,3.2,5.7,3,7.8,0.6l1.4-1.8c0.6-0.3,1.9,0.5,1.9,1.2
		c-2.2,3.3-4.1,6.2-5.7,8.9c-1.8,2.9-3.5,5.8-5.3,8.9c-0.6,0.3-1.9-0.5-1.9-1.2l0.7-1.5c1.2-3,1-3.6-4.1-6.7l-20.5-12.7
		c-5.1-3.2-5.7-3-7.9-0.7l-1,1.3c-0.6,0.3-1.9-0.5-1.9-1.2c1.9-2.8,3.9-5.9,5.6-8.7c1.6-2.7,3.4-5.7,4.9-8.3
		c0.6-0.3,1.9,0.5,1.9,1.2l-0.6,1.3c-1.1,2.9-0.9,3.4,4.2,6.6l6.4,3.9c1.6,1,1.7,1,3.2-1.5l7.6-12.3c1.5-2.5,1.5-2.5-0.1-3.5
		l-6.4-3.9c-5.1-3.2-5.7-3.1-7.8-0.6l-1.2,1.5c-0.6,0.3-1.9-0.5-1.9-1.2c2.1-3.2,4-6.1,5.7-8.9c1.8-2.9,3.4-5.7,5-8.5
		c0.6-0.3,1.9,0.5,1.9,1.2l-0.6,1.3c-1.2,3-1,3.6,4.1,6.8l20.5,12.7c5.1,3.2,5.7,3,7.9,0.6l1.1-1.3c0.6-0.3,1.9,0.5,1.9,1.2
		c-1.9,2.9-3.8,5.8-5.5,8.5c-1.8,3-3.6,5.9-5.2,8.8c-0.6,0.3-1.9-0.5-1.9-1.2l0.6-1.4c1.2-3,1-3.6-4.1-6.7l-7.9-4.9
		c-1.5-1-1.6-1-3.1,1.5L492.2,434.4z"/>
	<path class="st5" d="M492.2,434.4c-1.5,2.4-1.5,2.5,0.1,3.5l7.9,4.9c5.1,3.2,5.7,3,7.8,0.6l1.4-1.8c0.6-0.3,1.9,0.5,1.9,1.2
		c-2.2,3.3-4.1,6.2-5.7,8.9c-1.8,2.9-3.5,5.8-5.3,8.9c-0.6,0.3-1.9-0.5-1.9-1.2l0.7-1.5c1.2-3,1-3.6-4.1-6.7l-20.5-12.7
		c-5.1-3.2-5.7-3-7.9-0.7l-1,1.3c-0.6,0.3-1.9-0.5-1.9-1.2c1.9-2.8,3.9-5.9,5.6-8.7c1.6-2.7,3.4-5.7,4.9-8.3
		c0.6-0.3,1.9,0.5,1.9,1.2l-0.6,1.3c-1.1,2.9-0.9,3.4,4.2,6.6l6.4,3.9c1.6,1,1.7,1,3.2-1.5l7.6-12.3c1.5-2.5,1.5-2.5-0.1-3.5
		l-6.4-3.9c-5.1-3.2-5.7-3.1-7.8-0.6l-1.2,1.5c-0.6,0.3-1.9-0.5-1.9-1.2c2.1-3.2,4-6.1,5.7-8.9c1.8-2.9,3.4-5.7,5-8.5
		c0.6-0.3,1.9,0.5,1.9,1.2l-0.6,1.3c-1.2,3-1,3.6,4.1,6.8l20.5,12.7c5.1,3.2,5.7,3,7.9,0.6l1.1-1.3c0.6-0.3,1.9,0.5,1.9,1.2
		c-1.9,2.9-3.8,5.8-5.5,8.5c-1.8,3-3.6,5.9-5.2,8.8c-0.6,0.3-1.9-0.5-1.9-1.2l0.6-1.4c1.2-3,1-3.6-4.1-6.7l-7.9-4.9
		c-1.5-1-1.6-1-3.1,1.5L492.2,434.4z"/>
	<path class="st1" d="M139.8,210.1c-3.5-2.4-4-2.4-5.5-0.9l-0.9,0.8c-0.4,0.1-1.3-0.4-1.2-1c1.3-1.8,2.7-3.6,4-5.5
		c1.3-1.9,2.5-3.8,3.7-5.6c0.4-0.1,1.3,0.4,1.3,0.9l-0.5,1c-0.8,1.9-0.7,2.4,2.8,4.8l8.8,6.1c4.5,3.1,9.7,6,13.7,0.2
		c3.4-4.9,0.1-9.3-5.1-12.9l-4.6-3.2c-3.1-2.1-6.1-4-7.4-4.3c-1-0.2-1.8,0.5-2.7,1.4l-0.9,0.9c-0.5,0.1-1.2-0.5-1.3-0.9
		c1.5-2,2.6-3.5,3.6-5c1-1.4,1.9-2.8,2.8-4.3c0.4-0.1,1.2,0.4,1.3,0.9l-0.3,0.8c-0.5,1.2-0.7,2-0.2,2.9c0.7,1.1,3.5,3.3,6.6,5.4
		l4.3,3c3.6,2.5,6.6,5.1,7.5,8.8c0.6,2.9-0.3,6.3-2.5,9.4c-2,2.9-4.3,5.2-7.4,6.1c-3,0.8-6.4-0.3-10.5-3.1L139.8,210.1z"/>
	<path class="st5" d="M139.8,210.1c-3.5-2.4-4-2.4-5.5-0.9l-0.9,0.8c-0.4,0.1-1.3-0.4-1.2-1c1.3-1.8,2.7-3.6,4-5.5
		c1.3-1.9,2.5-3.8,3.7-5.6c0.4-0.1,1.3,0.4,1.3,0.9l-0.5,1c-0.8,1.9-0.7,2.4,2.8,4.8l8.8,6.1c4.5,3.1,9.7,6,13.7,0.2
		c3.4-4.9,0.1-9.3-5.1-12.9l-4.6-3.2c-3.1-2.1-6.1-4-7.4-4.3c-1-0.2-1.8,0.5-2.7,1.4l-0.9,0.9c-0.5,0.1-1.2-0.5-1.3-0.9
		c1.5-2,2.6-3.5,3.6-5c1-1.4,1.9-2.8,2.8-4.3c0.4-0.1,1.2,0.4,1.3,0.9l-0.3,0.8c-0.5,1.2-0.7,2-0.2,2.9c0.7,1.1,3.5,3.3,6.6,5.4
		l4.3,3c3.6,2.5,6.6,5.1,7.5,8.8c0.6,2.9-0.3,6.3-2.5,9.4c-2,2.9-4.3,5.2-7.4,6.1c-3,0.8-6.4-0.3-10.5-3.1L139.8,210.1z"/>
	<path class="st1" d="M196.1,169.2c2.1,2.2,4.1,4.3,5.2,5.4c0.1,0.6-0.4,1.9-1.3,2.6c0,0-2.8-0.6-6.2-1.1l-16.9-2.3
		c-4.2-0.6-6.7-0.9-7.7-0.8c0.2,0.5,0.7,1.1,1.9,2.3l6.2,6.5c2.6,2.7,5.1,5.1,6.3,5.7c1,0.4,1.9-0.1,3-0.8l1.1-0.8
		c0.5,0,1.1,0.8,1.1,1.2c-1.9,1.7-3.3,2.9-4.6,4.2c-1.2,1.2-2.5,2.4-3.7,3.7c-0.4,0-1.1-0.7-1.1-1.2l0.5-0.6
		c0.7-1.1,1.2-1.9,0.8-2.9c-0.5-1.2-2.8-3.9-5.3-6.6l-8.1-8.5c-1.7-1.9-2.3-2.4-2.9-2.6c-0.8-0.3-1.6-0.2-3,0.7l-1.1,0.8
		c-0.5,0-1.2-0.9-1-1.3c1.6-1.4,3.4-3,4.7-4.3c1.1-1.1,2.1-2,2.7-2.8c1.8,1.2,6.4,1.7,12.8,2.4l6,0.7c3.2,0.3,5.2,0.6,6.7,0.7
		c-0.2-0.5-0.7-1-1.3-1.6l-4.4-4.6c-2.6-2.7-5.1-5.1-6.3-5.7c-1-0.4-1.9,0.1-3,0.8l-1,0.7c-0.5,0-1.1-0.8-1.1-1.2
		c1.9-1.7,3.2-2.9,4.6-4.2c1.2-1.2,2.4-2.4,3.7-3.7c0.4,0,1.1,0.7,1.1,1.2l-0.5,0.7c-0.7,1-1.1,1.8-0.8,2.8c0.5,1.3,2.7,3.9,5.3,6.6
		L196.1,169.2z"/>
	<path class="st5" d="M196.1,169.2c2.1,2.2,4.1,4.3,5.2,5.4c0.1,0.6-0.4,1.9-1.3,2.6c0,0-2.8-0.6-6.2-1.1l-16.9-2.3
		c-4.2-0.6-6.7-0.9-7.7-0.8c0.2,0.5,0.7,1.1,1.9,2.3l6.2,6.5c2.6,2.7,5.1,5.1,6.3,5.7c1,0.4,1.9-0.1,3-0.8l1.1-0.8
		c0.5,0,1.1,0.8,1.1,1.2c-1.9,1.7-3.3,2.9-4.6,4.2c-1.2,1.2-2.5,2.4-3.7,3.7c-0.4,0-1.1-0.7-1.1-1.2l0.5-0.6
		c0.7-1.1,1.2-1.9,0.8-2.9c-0.5-1.2-2.8-3.9-5.3-6.6l-8.1-8.5c-1.7-1.9-2.3-2.4-2.9-2.6c-0.8-0.3-1.6-0.2-3,0.7l-1.1,0.8
		c-0.5,0-1.2-0.9-1-1.3c1.6-1.4,3.4-3,4.7-4.3c1.1-1.1,2.1-2,2.7-2.8c1.8,1.2,6.4,1.7,12.8,2.4l6,0.7c3.2,0.3,5.2,0.6,6.7,0.7
		c-0.2-0.5-0.7-1-1.3-1.6l-4.4-4.6c-2.6-2.7-5.1-5.1-6.3-5.7c-1-0.4-1.9,0.1-3,0.8l-1,0.7c-0.5,0-1.1-0.8-1.1-1.2
		c1.9-1.7,3.2-2.9,4.6-4.2c1.2-1.2,2.4-2.4,3.7-3.7c0.4,0,1.1,0.7,1.1,1.2l-0.5,0.7c-0.7,1-1.1,1.8-0.8,2.8c0.5,1.3,2.7,3.9,5.3,6.6
		L196.1,169.2z"/>
	<path class="st1" d="M215.4,156.8c2.4,3.6,2.8,3.7,4.8,2.8l1.2-0.5c0.5,0,1,0.9,0.9,1.4c-2.1,1.3-4,2.6-5.8,3.8
		c-1.8,1.2-3.7,2.6-5.8,4.1c-0.5,0-1.1-0.9-0.9-1.3l0.9-0.9c1.6-1.5,1.6-1.9-0.8-5.5l-9.5-14.1c-2.4-3.6-2.8-3.7-4.8-2.8l-1.2,0.5
		c-0.5,0-1.1-0.9-0.9-1.4c2.1-1.3,4.1-2.6,5.9-3.8c1.8-1.2,3.7-2.5,5.7-4c0.5,0,1.1,0.9,0.9,1.3l-0.9,0.9c-1.6,1.5-1.6,1.9,0.8,5.5
		L215.4,156.8z"/>
	<path class="st5" d="M215.4,156.8c2.4,3.6,2.8,3.7,4.8,2.8l1.2-0.5c0.5,0,1,0.9,0.9,1.4c-2.1,1.3-4,2.6-5.8,3.8
		c-1.8,1.2-3.7,2.6-5.8,4.1c-0.5,0-1.1-0.9-0.9-1.3l0.9-0.9c1.6-1.5,1.6-1.9-0.8-5.5l-9.5-14.1c-2.4-3.6-2.8-3.7-4.8-2.8l-1.2,0.5
		c-0.5,0-1.1-0.9-0.9-1.4c2.1-1.3,4.1-2.6,5.9-3.8c1.8-1.2,3.7-2.5,5.7-4c0.5,0,1.1,0.9,0.9,1.3l-0.9,0.9c-1.6,1.5-1.6,1.9,0.8,5.5
		L215.4,156.8z"/>
	<path class="st1" d="M242.9,136.7c0.2,6.1,0.6,9.9,0.8,12.7c-0.2,0.4-0.7,0.7-1.3,1c-0.5,0.2-0.9,0.3-1.3,0.2c-1-0.9-2.7-2.8-4-4
		l-14.8-13.9c-3.7-3.4-3.5-3.3-5.8-2.9l-1.3,0.3c-0.6-0.3-0.8-1.1-0.5-1.5c2.2-1,3.6-1.5,5.8-2.5c1.9-0.9,3.7-1.8,6.2-3.1
		c0.5,0.1,0.8,0.9,0.7,1.4l-1.1,0.8c-0.7,0.5-0.9,0.9-0.7,1.3c0.2,0.3,1.7,1.8,3.8,3.8l8.1,7.7c1.3,1.3,2.2,2,2.8,2.6
		c0-0.9,0-2.2-0.1-3.7l-0.3-4.7c-0.1-3.2-0.6-8.7-0.8-10.3c-0.1-0.9-0.2-1.5-0.3-1.7c-0.1-0.3-0.4-0.4-1.5-0.2l-1.4,0.3
		c-0.5-0.2-0.9-1.1-0.5-1.5c2-0.8,3.6-1.5,5.2-2.3c1.4-0.7,2.7-1.3,3.8-1.9c0.4,0,0.9,1,0.7,1.4l-1,0.7c-1.1,0.8-1.5,1.4-1.6,2.5
		c-0.3,1.8-0.3,4.6-0.2,8.7L242.9,136.7z"/>
	<path class="st5" d="M242.9,136.7c0.2,6.1,0.6,9.9,0.8,12.7c-0.2,0.4-0.7,0.7-1.3,1c-0.5,0.2-0.9,0.3-1.3,0.2c-1-0.9-2.7-2.8-4-4
		l-14.8-13.9c-3.7-3.4-3.5-3.3-5.8-2.9l-1.3,0.3c-0.6-0.3-0.8-1.1-0.5-1.5c2.2-1,3.6-1.5,5.8-2.5c1.9-0.9,3.7-1.8,6.2-3.1
		c0.5,0.1,0.8,0.9,0.7,1.4l-1.1,0.8c-0.7,0.5-0.9,0.9-0.7,1.3c0.2,0.3,1.7,1.8,3.8,3.8l8.1,7.7c1.3,1.3,2.2,2,2.8,2.6
		c0-0.9,0-2.2-0.1-3.7l-0.3-4.7c-0.1-3.2-0.6-8.7-0.8-10.3c-0.1-0.9-0.2-1.5-0.3-1.7c-0.1-0.3-0.4-0.4-1.5-0.2l-1.4,0.3
		c-0.5-0.2-0.9-1.1-0.5-1.5c2-0.8,3.6-1.5,5.2-2.3c1.4-0.7,2.7-1.3,3.8-1.9c0.4,0,0.9,1,0.7,1.4l-1,0.7c-1.1,0.8-1.5,1.4-1.6,2.5
		c-0.3,1.8-0.3,4.6-0.2,8.7L242.9,136.7z"/>
	<path class="st1" d="M267.3,120.8c0.3,1.3,0.4,1.3,1.6,1l3.1-0.8c2.3-0.6,2.7-1.1,2.7-3.3l-0.1-1.2c0.2-0.4,1.3-0.7,1.7-0.4
		c0.3,1.5,0.7,3.1,1.1,4.8c0.4,1.7,0.9,3.3,1.4,4.7c-0.1,0.5-1.2,0.8-1.6,0.5l-0.5-1.1c-1.1-2-1.6-2.2-4-1.6l-3.1,0.8
		c-1.2,0.3-1.2,0.4-0.9,1.7l1.4,5.3c0.5,2.1,1.1,3.4,1.8,4.1c0.8,0.7,1.7,0.8,5-0.1c3.9-1,5.4-1.6,6.5-7.3c0.2-0.6,1.4-0.7,1.7-0.2
		c0.4,2.4,0.3,6.3,0,7.7c-2.4,0.5-6.7,1.6-10.4,2.6l-5.8,1.5c-2.1,0.6-4.3,1.2-7.7,2.2c-0.4-0.2-0.7-1.2-0.4-1.6l2-0.9
		c1.9-0.8,2.1-1.2,1-5.3l-4.4-16.7c-1.1-4.1-1.4-4.3-3.5-4.1l-1.2,0.1c-0.5-0.2-0.7-1.2-0.3-1.6c2.1-0.5,4.3-1,6.5-1.6l9.5-2.5
		c2.9-0.8,5.4-1.5,6-1.7c0.2,0.7,1.4,3.8,2.4,6.8c0,0.5-1.1,0.9-1.6,0.6c-0.9-1.4-1.9-2.6-2.6-3.1c-1.1-0.6-2.6-0.8-4.8-0.2
		l-3.6,0.9c-1.5,0.4-1.5,0.5-1,2.1L267.3,120.8z"/>
	<path class="st5" d="M267.3,120.8c0.3,1.3,0.4,1.3,1.6,1l3.1-0.8c2.3-0.6,2.7-1.1,2.7-3.3l-0.1-1.2c0.2-0.4,1.3-0.7,1.7-0.4
		c0.3,1.5,0.7,3.1,1.1,4.8c0.4,1.7,0.9,3.3,1.4,4.7c-0.1,0.5-1.2,0.8-1.6,0.5l-0.5-1.1c-1.1-2-1.6-2.2-4-1.6l-3.1,0.8
		c-1.2,0.3-1.2,0.4-0.9,1.7l1.4,5.3c0.5,2.1,1.1,3.4,1.8,4.1c0.8,0.7,1.7,0.8,5-0.1c3.9-1,5.4-1.6,6.5-7.3c0.2-0.6,1.4-0.7,1.7-0.2
		c0.4,2.4,0.3,6.3,0,7.7c-2.4,0.5-6.7,1.6-10.4,2.6l-5.8,1.5c-2.1,0.6-4.3,1.2-7.7,2.2c-0.4-0.2-0.7-1.2-0.4-1.6l2-0.9
		c1.9-0.8,2.1-1.2,1-5.3l-4.4-16.7c-1.1-4.1-1.4-4.3-3.5-4.1l-1.2,0.1c-0.5-0.2-0.7-1.2-0.3-1.6c2.1-0.5,4.3-1,6.5-1.6l9.5-2.5
		c2.9-0.8,5.4-1.5,6-1.7c0.2,0.7,1.4,3.8,2.4,6.8c0,0.5-1.1,0.9-1.6,0.6c-0.9-1.4-1.9-2.6-2.6-3.1c-1.1-0.6-2.6-0.8-4.8-0.2
		l-3.6,0.9c-1.5,0.4-1.5,0.5-1,2.1L267.3,120.8z"/>
	<path class="st1" d="M295.3,110.4c-0.4-4.6-0.5-5.1-2.5-5.2l-1.3-0.1c-0.5-0.2-0.6-1.3,0-1.6c3.4-0.5,7-1,11.4-1.3
		c3.9-0.3,7.3,0,9.2,1c2.8,1.4,4.4,3.6,4.6,6.5c0.3,4.1-2.3,6.1-4.4,7.3c-0.4,0.3-0.4,0.5-0.2,1c3.5,6,5.7,9.3,8.1,11
		c1.3,0.9,2.5,1.1,3.2,1.1c0.4,0.2,0.5,0.9,0.3,1.2c-0.7,0.4-2.2,0.6-3.6,0.7c-4.2,0.3-7-1-9.3-4.1c-1.7-2.3-2.9-4.5-4.2-6.9
		c-0.7-1.2-1.4-1.5-2.6-1.4c-1.6,0.1-1.7,0.2-1.6,1.1l0.4,5.7c0.3,4.2,0.6,4.5,2.7,4.8l1.3,0.1c0.3,0.2,0.4,1.3,0.1,1.6
		c-2.5,0.1-4.6,0.2-6.8,0.4c-2.3,0.2-4.3,0.4-6.7,0.7c-0.4-0.2-0.5-1.4-0.1-1.6l1.2-0.3c2-0.5,2.3-0.9,2-5.1L295.3,110.4z
		 M302.1,115.7c0.1,1.6,0.3,1.7,3,1.5c1.7-0.1,2.6-0.6,3.4-1.6c0.7-0.8,1.5-2.4,1.3-5.1c-0.3-4.2-3-6.6-6.6-6.4
		c-1.9,0.1-1.9,0.3-1.8,2.5L302.1,115.7z"/>
	<path class="st5" d="M295.3,110.4c-0.4-4.6-0.5-5.1-2.5-5.2l-1.3-0.1c-0.5-0.2-0.6-1.3,0-1.6c3.4-0.5,7-1,11.4-1.3
		c3.9-0.3,7.3,0,9.2,1c2.8,1.4,4.4,3.6,4.6,6.5c0.3,4.1-2.3,6.1-4.4,7.3c-0.4,0.3-0.4,0.5-0.2,1c3.5,6,5.7,9.3,8.1,11
		c1.3,0.9,2.5,1.1,3.2,1.1c0.4,0.2,0.5,0.9,0.3,1.2c-0.7,0.4-2.2,0.6-3.6,0.7c-4.2,0.3-7-1-9.3-4.1c-1.7-2.3-2.9-4.5-4.2-6.9
		c-0.7-1.2-1.4-1.5-2.6-1.4c-1.6,0.1-1.7,0.2-1.6,1.1l0.4,5.7c0.3,4.2,0.6,4.5,2.7,4.8l1.3,0.1c0.3,0.2,0.4,1.3,0.1,1.6
		c-2.5,0.1-4.6,0.2-6.8,0.4c-2.3,0.2-4.3,0.4-6.7,0.7c-0.4-0.2-0.5-1.4-0.1-1.6l1.2-0.3c2-0.5,2.3-0.9,2-5.1L295.3,110.4z
		 M302.1,115.7c0.1,1.6,0.3,1.7,3,1.5c1.7-0.1,2.6-0.6,3.4-1.6c0.7-0.8,1.5-2.4,1.3-5.1c-0.3-4.2-3-6.6-6.6-6.4
		c-1.9,0.1-1.9,0.3-1.8,2.5L302.1,115.7z"/>
	<path class="st1" d="M337.4,133.4c-4.2-0.4-6.8-1.8-7.7-2.4c-0.8-1.1-1.1-4.5-0.8-7.6c0.4-0.6,1.4-0.5,1.8,0
		c0.7,3.1,3.4,7.6,7.3,7.9c3.4,0.3,5.2-1.9,5.4-4.2c0.3-3.7-3-6.3-5.6-7.9c-3.2-2-6.5-5-6.2-9.6c0.5-5.2,4.8-8.5,11.5-7.9
		c1.5,0.1,3.4,0.5,5.2,1.2c0.6,0.2,1,0.4,1.5,0.5c0.3,1,0.5,3.6,0.2,6.7c-0.3,0.5-1.4,0.5-1.8,0c-0.6-2.4-2.3-6-5.6-6.3
		c-3-0.3-4.9,1.6-5.1,3.9c-0.2,2.1,1.5,4.2,3.7,5.6l2.9,1.9c2.7,1.8,6.1,4.8,5.7,9.8C349.3,130.7,344.4,134,337.4,133.4"/>
	<path class="st5" d="M337.4,133.4c-4.2-0.4-6.8-1.8-7.7-2.4c-0.8-1.1-1.1-4.5-0.8-7.6c0.4-0.6,1.4-0.5,1.8,0
		c0.7,3.1,3.4,7.6,7.3,7.9c3.4,0.3,5.2-1.9,5.4-4.2c0.3-3.7-3-6.3-5.6-7.9c-3.2-2-6.5-5-6.2-9.6c0.5-5.2,4.8-8.5,11.5-7.9
		c1.5,0.1,3.4,0.5,5.2,1.2c0.6,0.2,1,0.4,1.5,0.5c0.3,1,0.5,3.6,0.2,6.7c-0.3,0.5-1.4,0.5-1.8,0c-0.6-2.4-2.3-6-5.6-6.3
		c-3-0.3-4.9,1.6-5.1,3.9c-0.2,2.1,1.5,4.2,3.7,5.6l2.9,1.9c2.7,1.8,6.1,4.8,5.7,9.8C349.3,130.7,344.4,134,337.4,133.4z"/>
	<path class="st1" d="M368.7,130.8c-1,4.2-0.8,4.6,1.2,5.5l1.2,0.5c0.3,0.4,0,1.4-0.4,1.6c-2.4-0.6-4.6-1.2-6.7-1.7
		c-2.2-0.5-4.4-1-6.9-1.4c-0.3-0.4-0.1-1.4,0.4-1.6l1.3,0.1c2.2,0.1,2.5-0.1,3.5-4.4l3.8-16.6c1-4.2,0.8-4.6-1.2-5.5l-1.2-0.5
		c-0.3-0.4-0.1-1.4,0.4-1.6c2.4,0.6,4.7,1.2,6.8,1.7c2.1,0.5,4.4,1,6.8,1.4c0.3,0.4,0.1,1.4-0.4,1.6l-1.3-0.1
		c-2.2-0.1-2.5,0.1-3.5,4.4L368.7,130.8z"/>
	<path class="st5" d="M368.7,130.8c-1,4.2-0.8,4.6,1.2,5.5l1.2,0.5c0.3,0.4,0,1.4-0.4,1.6c-2.4-0.6-4.6-1.2-6.7-1.7
		c-2.2-0.5-4.4-1-6.9-1.4c-0.3-0.4-0.1-1.4,0.4-1.6l1.3,0.1c2.2,0.1,2.5-0.1,3.5-4.4l3.8-16.6c1-4.2,0.8-4.6-1.2-5.5l-1.2-0.5
		c-0.3-0.4-0.1-1.4,0.4-1.6c2.4,0.6,4.7,1.2,6.8,1.7c2.1,0.5,4.4,1,6.8,1.4c0.3,0.4,0.1,1.4-0.4,1.6l-1.3-0.1
		c-2.2-0.1-2.5,0.1-3.5,4.4L368.7,130.8z"/>
	<path class="st1" d="M397.8,118.6c0.4-1,0.5-1.3-0.5-1.7l-2.7-1c-3.1-1.2-4.7,0.1-7.3,2.8c-0.6,0.1-1.4-0.4-1.4-1
		c2.1-2.6,3.3-5.2,4.3-6.8c0.2-0.1,0.5-0.1,0.7,0c0.2,0.1,0.4,0.2,0.5,0.4c-0.1,0.8,0,1,3.3,2.3l16,6.3c2.9,1.1,3.5,1.3,4.3,0.6
		c0.2,0,0.4,0,0.6,0.1c0.3,0.1,0.5,0.4,0.5,0.6c-1,1.3-2.7,4.7-3.5,7.2c-0.4,0.3-1.6-0.1-1.6-0.5c0.3-3,0.5-5.3-2.7-6.6l-2.6-1
		c-1-0.4-1.2-0.3-1.7,0.8l-7.4,19c-1.6,4-1.4,4.4,0.4,5.5l1.6,0.9c0.2,0.4-0.2,1.4-0.6,1.5c-2.8-1.2-4.9-2.1-6.8-2.8
		c-2.1-0.8-4.3-1.6-7.4-2.7c-0.2-0.4,0.1-1.4,0.6-1.5l2,0.5c2.1,0.5,2.4,0.3,4-3.8L397.8,118.6z"/>
	<path class="st5" d="M397.8,118.6c0.4-1,0.5-1.3-0.5-1.7l-2.7-1c-3.1-1.2-4.7,0.1-7.3,2.8c-0.6,0.1-1.4-0.4-1.4-1
		c2.1-2.6,3.3-5.2,4.3-6.8c0.2-0.1,0.5-0.1,0.7,0c0.2,0.1,0.4,0.2,0.5,0.4c-0.1,0.8,0,1,3.3,2.3l16,6.3c2.9,1.1,3.5,1.3,4.3,0.6
		c0.2,0,0.4,0,0.6,0.1c0.3,0.1,0.5,0.4,0.5,0.6c-1,1.3-2.7,4.7-3.5,7.2c-0.4,0.3-1.6-0.1-1.6-0.5c0.3-3,0.5-5.3-2.7-6.6l-2.6-1
		c-1-0.4-1.2-0.3-1.7,0.8l-7.4,19c-1.6,4-1.4,4.4,0.4,5.5l1.6,0.9c0.2,0.4-0.2,1.4-0.6,1.5c-2.8-1.2-4.9-2.1-6.8-2.8
		c-2.1-0.8-4.3-1.6-7.4-2.7c-0.2-0.4,0.1-1.4,0.6-1.5l2,0.5c2.1,0.5,2.4,0.3,4-3.8L397.8,118.6z"/>
	<path class="st1" d="M427.2,156c-2.3,3.7-2.2,4.1-0.6,5.5l1.5,1.2c0.1,0.4-0.4,1.3-0.8,1.4c-2.5-1.7-4.4-2.9-6.3-4
		c-1.9-1.2-3.9-2.3-6.3-3.7c-0.2-0.4,0.4-1.3,0.8-1.4l1.5,0.6c1.9,0.8,2.4,0.7,4.6-3l1.2-2c1.2-2,1.6-2.6,1.8-5.4l1.3-12.6
		c0.2-2.1,0.2-2.9-1-4l-1.2-1.1c-0.2-0.5,0.5-1.5,1-1.3c1.7,1.2,3.2,2.1,5.5,3.5c2.4,1.5,4.4,2.7,5.8,3.4c0.3,0.4-0.2,1.3-0.8,1.4
		l-1.5-0.5c-0.8-0.3-1.1-0.3-1.2-0.2c-0.2,0.3-0.4,1-0.7,3.4l-0.7,5.4c-0.2,1.7-0.4,3.7-0.6,5c2.3-1.2,4.8-2.8,7.1-4.2
		c3.2-1.9,4.6-2.9,4.9-3.3c0.1-0.2-0.1-0.6-1-1.4l-0.8-0.7c-0.2-0.4,0.4-1.4,0.9-1.4c1.5,1,2.9,2,4.3,2.8c1.5,0.9,2.7,1.6,3.9,2.2
		c0.4,0.4-0.2,1.4-0.7,1.5l-1.1-0.4c-0.8-0.3-1.7-0.5-2.5-0.2c-1.1,0.4-2.9,1.2-6.9,3.5l-5.3,3c-2.2,1.2-3.2,2-4.5,4.2L427.2,156z"
		/>
	<path class="st5" d="M427.2,156c-2.3,3.7-2.2,4.1-0.6,5.5l1.5,1.2c0.1,0.4-0.4,1.3-0.8,1.4c-2.5-1.7-4.4-2.9-6.3-4
		c-1.9-1.2-3.9-2.3-6.3-3.7c-0.2-0.4,0.4-1.3,0.8-1.4l1.5,0.6c1.9,0.8,2.4,0.7,4.6-3l1.2-2c1.2-2,1.6-2.6,1.8-5.4l1.3-12.6
		c0.2-2.1,0.2-2.9-1-4l-1.2-1.1c-0.2-0.5,0.5-1.5,1-1.3c1.7,1.2,3.2,2.1,5.5,3.5c2.4,1.5,4.4,2.7,5.8,3.4c0.3,0.4-0.2,1.3-0.8,1.4
		l-1.5-0.5c-0.8-0.3-1.1-0.3-1.2-0.2c-0.2,0.3-0.4,1-0.7,3.4l-0.7,5.4c-0.2,1.7-0.4,3.7-0.6,5c2.3-1.2,4.8-2.8,7.1-4.2
		c3.2-1.9,4.6-2.9,4.9-3.3c0.1-0.2-0.1-0.6-1-1.4l-0.8-0.7c-0.2-0.4,0.4-1.4,0.9-1.4c1.5,1,2.9,2,4.3,2.8c1.5,0.9,2.7,1.6,3.9,2.2
		c0.4,0.4-0.2,1.4-0.7,1.5l-1.1-0.4c-0.8-0.3-1.7-0.5-2.5-0.2c-1.1,0.4-2.9,1.2-6.9,3.5l-5.3,3c-2.2,1.2-3.2,2-4.5,4.2L427.2,156z"
		/>
	<path class="st1" d="M482,192.6c-7.3,6.9-16.4,6.2-23.2-1c-6.4-6.8-6.6-15.9,0.4-22.5c6.7-6.3,16.5-6.2,23.2,0.8
		C489,176.9,488.8,186.2,482,192.6 M480.5,171.1c-3.9-4.1-9.9-2.7-15.5,2.6c-4.1,3.9-9.3,11.6-4.1,17c4.2,4.4,10.1,2,15.5-3.1
		C482.2,182.2,484.5,175.3,480.5,171.1"/>
	<path class="st5" d="M482,192.6c-7.3,6.9-16.4,6.2-23.2-1c-6.4-6.8-6.6-15.9,0.4-22.5c6.7-6.3,16.5-6.2,23.2,0.8
		C489,176.9,488.8,186.2,482,192.6z M480.5,171.1c-3.9-4.1-9.9-2.7-15.5,2.6c-4.1,3.9-9.3,11.6-4.1,17c4.2,4.4,10.1,2,15.5-3.1
		C482.2,182.2,484.5,175.3,480.5,171.1z"/>
	<path class="st1" d="M495.3,207.4c-1,0.7-1.1,0.8-0.5,1.8l1.9,3c1.3,2.1,1.9,2.3,4,1.4l1.1-0.4c0.5,0,1.1,1,0.9,1.5
		c-1.3,0.7-2.7,1.6-4.2,2.6c-1.4,0.9-2.8,1.9-4,2.8c-0.5,0-1.2-0.9-1-1.4l0.8-0.8c1.6-1.6,1.6-2.2,0.3-4.3l-1.9-3
		c-0.7-1-0.8-1-1.9-0.3l-5.2,3.4c-3.6,2.4-3.7,2.8-2.9,4.7l0.7,1.6c-0.1,0.4-0.9,1-1.4,0.9c-1.5-2.5-2.7-4.4-3.9-6.2
		c-1.2-1.8-2.5-3.7-4.1-6c0-0.5,0.9-1,1.4-0.9l1,1.2c1.4,1.6,1.8,1.6,5.4-0.7l14.4-9.4c3.6-2.4,3.7-2.8,2.9-4.7l-0.4-0.9
		c0-0.5,1-1.1,1.4-0.8c1,1.7,2.2,3.7,3.5,5.5l5.3,8.1c1.6,2.5,3.1,4.7,3.5,5.2c-0.7,0.4-3.4,2.3-6,4c-0.5,0.1-1.1-0.7-1.1-1.4
		c1.3-1.5,2-2.4,2.3-3.1c0.4-1.2,0.1-2.7-1.2-4.6l-2-3c-0.8-1.3-0.9-1.2-2.4-0.2L495.3,207.4z"/>
	<path class="st5" d="M495.3,207.4c-1,0.7-1.1,0.8-0.5,1.8l1.9,3c1.3,2.1,1.9,2.3,4,1.4l1.1-0.4c0.5,0,1.1,1,0.9,1.5
		c-1.3,0.7-2.7,1.6-4.2,2.6c-1.4,0.9-2.8,1.9-4,2.8c-0.5,0-1.2-0.9-1-1.4l0.8-0.8c1.6-1.6,1.6-2.2,0.3-4.3l-1.9-3
		c-0.7-1-0.8-1-1.9-0.3l-5.2,3.4c-3.6,2.4-3.7,2.8-2.9,4.7l0.7,1.6c-0.1,0.4-0.9,1-1.4,0.9c-1.5-2.5-2.7-4.4-3.9-6.2
		c-1.2-1.8-2.5-3.7-4.1-6c0-0.5,0.9-1,1.4-0.9l1,1.2c1.4,1.6,1.8,1.6,5.4-0.7l14.4-9.4c3.6-2.4,3.7-2.8,2.9-4.7l-0.4-0.9
		c0-0.5,1-1.1,1.4-0.8c1,1.7,2.2,3.7,3.5,5.5l5.3,8.1c1.6,2.5,3.1,4.7,3.5,5.2c-0.7,0.4-3.4,2.3-6,4c-0.5,0.1-1.1-0.7-1.1-1.4
		c1.3-1.5,2-2.4,2.3-3.1c0.4-1.2,0.1-2.7-1.2-4.6l-2-3c-0.8-1.3-0.9-1.2-2.4-0.2L495.3,207.4z"/>
</g>
</svg>
