<?xml version="1.0" standalone="no"?>
<!DOCTYPE svg PUBLIC "-//W3C//DTD SVG 20010904//EN"
 "http://www.w3.org/TR/2001/REC-SVG-20010904/DTD/svg10.dtd">
<svg version="1.0" xmlns="http://www.w3.org/2000/svg"
 width="1024.000000pt" height="1038.000000pt" viewBox="0 0 1024.000000 1038.000000"
 preserveAspectRatio="xMidYMid meet">
<metadata>
Created by potrace 1.15, written by Peter Selinger 2001-2017
</metadata>
<g transform="translate(0.000000,1038.000000) scale(0.100000,-0.100000)"
fill="#000000" stroke="none">
<path d="M4840 10319 c-69 -5 -179 -16 -245 -24 -66 -9 -142 -18 -170 -21 -77
-7 -370 -64 -468 -90 -48 -13 -93 -24 -100 -24 -17 0 -209 -57 -303 -91 -45
-16 -86 -29 -93 -29 -6 0 -41 -13 -78 -30 -36 -16 -72 -30 -80 -30 -7 0 -40
-13 -73 -30 -33 -16 -64 -30 -70 -30 -6 0 -106 -47 -223 -105 -195 -96 -255
-128 -344 -181 -17 -11 -53 -32 -80 -48 -39 -24 -157 -101 -266 -176 -32 -21
-209 -153 -227 -168 -8 -7 -64 -54 -125 -104 -131 -108 -141 -118 -315 -290
-188 -185 -353 -374 -496 -568 -22 -30 -53 -73 -70 -95 -16 -22 -33 -47 -39
-56 -5 -9 -33 -50 -61 -90 -27 -41 -53 -81 -57 -89 -4 -8 -25 -44 -48 -80 -66
-104 -130 -219 -195 -350 -7 -14 -19 -38 -28 -55 -13 -25 -77 -164 -107 -230
-19 -45 -89 -226 -120 -315 -12 -36 -35 -100 -51 -142 -15 -43 -28 -85 -28
-94 0 -9 -13 -60 -29 -113 -31 -104 -77 -291 -87 -356 -3 -22 -15 -85 -25
-140 -11 -55 -24 -143 -29 -195 -5 -52 -17 -165 -26 -250 -22 -211 -22 -649 0
-860 9 -85 21 -198 26 -250 5 -52 16 -127 24 -166 8 -40 20 -103 26 -140 24
-153 87 -392 170 -644 63 -189 75 -224 105 -292 14 -32 37 -86 52 -120 81
-192 187 -403 279 -555 24 -39 44 -74 44 -76 0 -3 24 -41 52 -85 29 -43 58
-86 63 -95 44 -69 91 -133 102 -140 7 -4 13 -12 13 -17 0 -17 121 -171 261
-335 128 -149 368 -395 484 -496 28 -24 60 -53 72 -64 12 -11 35 -30 50 -43
15 -12 49 -39 74 -60 130 -106 238 -185 399 -289 47 -30 97 -64 112 -74 15
-10 30 -19 33 -19 3 0 23 -12 45 -26 22 -14 54 -34 72 -44 18 -10 53 -30 78
-43 205 -113 465 -232 675 -309 110 -40 283 -97 325 -107 19 -5 76 -20 125
-34 212 -59 556 -124 732 -138 65 -5 170 -13 233 -19 150 -13 524 -13 670 0
63 6 165 15 225 19 170 13 551 85 735 138 47 14 101 28 121 32 88 18 394 130
594 218 120 52 420 202 460 229 20 13 38 24 41 24 8 0 123 70 160 97 17 13 34
23 38 23 8 0 176 115 255 174 29 23 64 48 76 56 40 27 259 205 324 264 73 67
349 345 401 404 30 35 66 76 80 91 46 52 128 155 187 234 15 21 33 43 39 50
17 20 133 188 172 251 20 32 52 81 70 107 17 27 32 51 32 54 0 3 12 24 27 48
33 51 41 65 130 237 39 74 85 169 103 210 18 41 43 98 56 125 140 305 273 765
350 1215 25 150 31 206 55 570 25 375 -20 942 -106 1320 -13 58 -26 121 -30
140 -22 118 -169 577 -214 671 -12 24 -21 48 -21 55 0 36 -302 640 -337 676
-7 6 -13 16 -13 22 0 5 -10 26 -23 45 -145 221 -183 277 -190 286 -13 16 -171
226 -187 249 -8 12 -24 31 -35 43 -11 11 -38 42 -60 69 -115 141 -355 385
-519 529 -110 96 -111 97 -143 122 -116 91 -207 162 -235 181 -153 107 -190
133 -215 147 -15 9 -55 34 -88 55 -33 22 -80 51 -105 65 -25 14 -76 43 -115
65 -115 66 -371 188 -530 253 -135 55 -175 70 -285 106 -305 101 -667 189
-870 211 -47 5 -159 19 -250 30 -193 23 -608 34 -800 19z m715 -109 c666 -62
1240 -225 1815 -516 671 -339 1277 -847 1735 -1455 687 -912 1039 -2006 1012
-3149 -7 -272 -15 -380 -48 -610 -179 -1259 -830 -2401 -1827 -3208 -777 -629
-1733 -1007 -2734 -1083 -203 -15 -724 -6 -908 15 -992 117 -1863 492 -2640
1135 -153 126 -492 465 -620 621 -668 807 -1057 1741 -1156 2780 -35 358 -20
851 36 1222 195 1281 880 2444 1905 3233 897 690 1975 1050 3090 1029 127 -2
280 -8 340 -14z"/>
<path d="M4755 10060 c-820 -71 -1594 -342 -2270 -793 -1132 -756 -1897 -1953
-2109 -3300 -45 -282 -57 -443 -57 -763 0 -291 10 -447 47 -704 181 -1275 863
-2428 1897 -3207 1070 -805 2419 -1126 3737 -887 1850 335 3360 1756 3820
3594 390 1557 8 3176 -1037 4396 -121 142 -419 437 -558 553 -740 616 -1591
981 -2556 1097 -156 19 -754 28 -914 14z m735 -240 c47 -24 80 -26 80 -5 0 8
5 15 10 15 11 0 13 -94 4 -152 -8 -48 -20 -49 -28 -2 -9 45 -67 109 -112 124
-64 21 -126 -11 -126 -65 0 -36 23 -59 134 -131 125 -81 152 -119 146 -202 -5
-70 -32 -113 -91 -143 -55 -29 -137 -29 -201 -1 -58 26 -69 27 -86 7 -7 -8
-17 -15 -22 -15 -10 0 0 201 12 213 4 5 12 -11 18 -35 24 -96 92 -158 174
-158 59 0 98 31 98 78 0 43 -29 73 -131 138 -114 72 -149 116 -149 189 0 60
26 106 79 142 45 30 135 32 191 3z m-576 -15 c105 -50 107 -204 4 -260 l-37
-21 92 -109 c51 -61 106 -117 122 -125 l30 -14 -45 -7 c-25 -4 -68 -8 -97 -8
l-51 -1 -99 119 c-72 89 -104 120 -121 120 -22 1 -23 -2 -18 -41 3 -24 8 -73
11 -111 7 -70 19 -87 64 -87 12 0 21 -4 21 -9 0 -4 -39 -11 -87 -15 -49 -4
-114 -9 -145 -13 -61 -6 -83 10 -28 20 20 5 31 14 36 31 10 41 -26 458 -42
484 -10 15 -24 22 -44 22 -35 0 -41 20 -7 21 12 0 81 7 152 14 158 16 239 13
289 -10z m1014 -35 c126 -22 179 -38 130 -39 -64 -2 -63 3 -114 -290 l-37
-214 23 -19 c12 -10 28 -18 36 -18 8 0 14 -5 14 -11 0 -12 0 -12 -187 22 -113
21 -147 39 -74 39 36 0 40 3 50 33 19 58 82 448 76 467 -3 10 -19 23 -35 29
-32 11 -39 21 -15 21 9 0 69 -9 133 -20z m-1643 -85 c21 -91 16 -110 -14 -62
-32 52 -58 67 -114 67 -63 0 -139 -19 -134 -34 3 -6 15 -58 28 -114 21 -94 24
-102 43 -96 41 11 66 51 66 105 0 27 4 49 9 49 5 0 23 -60 40 -132 18 -73 34
-138 36 -145 2 -7 0 -15 -5 -18 -5 -3 -16 9 -24 28 -20 49 -54 77 -93 77 -40
0 -41 -9 -12 -123 27 -107 33 -114 101 -98 97 21 151 72 164 154 4 20 10 37
14 37 10 0 23 -113 18 -154 l-3 -29 -225 -54 c-222 -53 -285 -62 -225 -33 21
11 31 24 33 43 4 32 -94 455 -110 474 -6 7 -26 13 -46 13 -19 0 -32 3 -28 7 7
7 418 110 448 112 13 1 20 -16 33 -74z m2179 -46 c127 -39 235 -75 240 -80 13
-11 -31 -152 -45 -144 -5 4 -9 25 -9 48 0 24 -7 52 -15 64 -14 19 -101 61
-109 52 -10 -13 -136 -449 -136 -471 0 -21 8 -32 33 -44 17 -10 27 -19 20 -21
-17 -6 -283 78 -283 89 0 5 12 7 28 4 16 -4 34 -1 44 6 15 11 165 476 156 483
-2 1 -21 6 -43 12 -62 14 -99 -1 -138 -57 -9 -13 -19 -21 -23 -17 -7 7 33 147
43 147 3 0 110 -32 237 -71z m-2764 -26 c0 -3 -7 -14 -16 -24 -23 -25 -32
-110 -40 -378 -4 -132 -11 -245 -15 -253 -6 -9 -69 47 -227 205 -182 181 -223
217 -247 217 -15 0 -25 3 -22 7 8 8 238 103 249 103 17 0 7 -17 -17 -28 -14
-6 -25 -20 -25 -29 0 -10 60 -78 134 -152 l134 -133 7 168 c9 204 6 217 -55
224 l-45 5 85 37 c90 39 100 42 100 31z m3232 -144 c114 -52 148 -77 89 -64
-16 3 -32 2 -35 -4 -12 -18 6 -291 18 -291 6 1 58 33 116 73 112 78 129 103
89 131 -44 30 -11 26 65 -8 42 -19 76 -40 76 -47 0 -6 -7 -8 -16 -5 -24 9 -69
-14 -208 -109 l-129 -88 -38 -84 c-22 -46 -39 -90 -39 -98 0 -7 14 -23 30 -35
65 -46 23 -36 -112 28 -78 38 -144 74 -146 81 -3 10 0 11 17 1 49 -25 73 -10
114 70 l38 75 -6 105 c-14 219 -22 280 -39 299 -17 18 -22 35 -8 29 4 -3 60
-29 124 -59z m-3925 -174 c-15 -14 -27 -33 -27 -42 0 -24 228 -430 245 -437 9
-3 27 -1 41 5 24 8 45 6 33 -5 -15 -13 -255 -144 -258 -140 -3 2 5 14 17 27
12 13 22 32 22 43 0 11 -51 112 -114 225 l-114 204 -47 -2 c-26 -1 -44 1 -41
4 3 3 58 36 123 74 125 72 168 87 120 44z m-357 -194 c0 -5 -7 -14 -15 -21
-34 -29 -17 -62 141 -278 86 -117 154 -215 151 -218 -3 -3 -137 29 -298 70
-161 41 -294 74 -295 73 -1 -1 50 -74 115 -162 123 -168 140 -182 191 -155 13
7 20 7 20 1 0 -13 -149 -126 -156 -118 -3 3 4 19 17 36 29 40 30 39 -122 246
-129 175 -151 195 -201 177 -49 -18 -30 6 51 67 l79 58 206 -55 c113 -30 209
-53 212 -50 10 11 -155 225 -178 231 -12 3 -30 1 -40 -4 -11 -6 -24 -9 -31 -6
-6 2 23 29 64 59 75 57 89 65 89 49z m2666 -61 c527 -27 987 -142 1464 -367
563 -266 1104 -727 1475 -1258 646 -923 855 -2096 570 -3192 -274 -1051 -985
-1945 -1940 -2439 -401 -208 -810 -336 -1275 -399 -157 -22 -589 -31 -765 -16
-656 54 -1264 265 -1800 624 -236 158 -418 310 -625 523 -975 1004 -1326 2460
-919 3813 253 844 811 1593 1554 2088 556 370 1219 589 1885 623 80 4 156 7
170 8 14 1 107 -3 206 -8z m2600 -153 c73 -37 150 -125 170 -194 44 -151 -49
-329 -198 -379 -137 -45 -302 29 -376 171 -39 73 -38 177 1 257 33 67 109 140
170 162 63 23 169 16 233 -17z m-5846 -234 c0 -5 -7 -17 -15 -27 -8 -11 -15
-26 -15 -34 0 -8 62 -78 138 -156 161 -164 184 -205 163 -284 -27 -103 -124
-193 -213 -199 -68 -5 -93 9 -200 112 -46 45 -111 107 -146 139 l-63 57 -35
-20 c-19 -12 -34 -16 -34 -9 0 17 204 221 208 208 2 -6 -4 -20 -13 -30 -35
-38 -27 -48 222 -282 95 -90 127 -99 183 -52 59 50 73 104 45 171 -20 47 -272
292 -300 293 -11 0 -31 -7 -43 -16 -40 -28 -23 2 39 70 56 61 80 78 79 59z
m6421 -303 l159 -175 -60 -60 c-33 -32 -62 -56 -66 -53 -3 4 4 28 16 53 20 41
21 51 11 86 -12 41 -86 134 -106 134 -6 0 -47 -33 -91 -74 l-78 -73 27 -24
c41 -35 71 -39 117 -16 22 11 42 17 45 13 4 -8 -205 -205 -211 -198 -3 2 7 27
21 54 28 54 27 80 -5 123 l-18 24 -77 -69 c-93 -83 -105 -104 -81 -140 47 -72
-14 -17 -154 138 -47 52 -48 71 -1 36 28 -20 32 -21 53 -7 58 39 348 322 348
339 0 11 -8 31 -17 46 -41 63 18 7 168 -157z m-6895 -741 c-13 -144 -49 -230
-135 -322 -48 -52 -132 -117 -150 -117 -14 0 -15 117 0 195 15 81 51 149 111
206 44 44 150 116 172 118 5 1 5 -35 2 -80z m7300 -37 c64 -62 91 -111 110
-201 17 -81 19 -201 3 -201 -19 0 -102 66 -157 124 -29 31 -64 80 -78 110 -29
64 -54 172 -54 239 l0 48 61 -33 c34 -18 85 -57 115 -86z m-7678 -159 c76
-198 77 -281 7 -394 -15 -23 -39 -72 -54 -108 -16 -40 -32 -66 -41 -66 -19 0
-76 150 -86 225 -11 88 10 181 71 308 29 61 58 112 64 112 5 0 23 -35 39 -77z
m7986 -35 c62 -126 82 -210 71 -300 -10 -90 -68 -242 -89 -235 -6 2 -24 35
-40 73 -16 38 -41 87 -56 109 -51 75 -60 158 -28 280 14 58 68 185 78 185 5 0
33 -51 64 -112z m-7544 -151 c0 -7 -24 -53 -52 -102 -67 -113 -163 -212 -245
-254 -60 -30 -182 -65 -192 -56 -10 11 63 174 104 231 64 89 127 127 285 170
102 28 100 27 100 11z m7155 -28 c104 -33 168 -74 220 -143 37 -48 98 -168
110 -219 7 -26 6 -27 -26 -21 -194 36 -332 152 -443 372 l-27 53 38 -7 c21 -3
79 -19 128 -35z m-7791 -232 c50 -99 82 -218 71 -269 -4 -18 -20 -62 -36 -96
-16 -35 -34 -85 -41 -110 -13 -55 -25 -82 -37 -82 -16 0 -91 158 -107 226 -19
84 -13 163 20 260 36 106 68 176 77 167 4 -4 28 -48 53 -96z m8403 -77 c31
-93 35 -209 8 -291 -24 -75 -86 -190 -99 -186 -6 2 -25 44 -41 93 -17 49 -38
103 -47 119 -49 93 -22 233 79 405 l27 45 24 -55 c13 -30 35 -89 49 -130z
m-7957 -39 c0 -20 -65 -159 -102 -217 -71 -113 -206 -216 -315 -239 l-32 -6
15 63 c20 88 75 198 124 252 50 54 107 89 209 127 82 30 101 34 101 20z m7451
-10 c86 -29 177 -79 223 -122 52 -47 110 -157 136 -257 l18 -73 -31 6 c-103
20 -235 115 -307 220 -32 47 -110 213 -110 235 0 14 9 13 71 -9z m-8043 -335
c86 -141 99 -221 58 -353 -14 -43 -30 -104 -36 -137 l-12 -59 -23 24 c-40 40
-95 140 -117 213 -28 92 -21 215 18 340 l28 89 26 -31 c14 -17 40 -55 58 -86z
m8688 -12 c22 -82 26 -114 22 -194 -3 -85 -8 -104 -40 -170 -19 -41 -52 -97
-71 -124 -31 -43 -36 -46 -45 -30 -5 11 -15 50 -21 89 -7 38 -22 91 -33 117
-42 97 -1 245 108 392 43 58 43 59 80 -80z m-8251 -61 c-23 -125 -105 -283
-186 -362 -42 -41 -141 -102 -185 -115 -20 -6 -20 -4 -12 56 18 137 64 242
131 308 40 39 225 149 251 150 4 0 5 -16 1 -37z m7779 -4 c134 -66 187 -114
235 -211 28 -57 46 -111 56 -172 8 -49 13 -91 11 -93 -2 -2 -35 11 -72 29 -92
43 -198 149 -241 238 -48 98 -95 250 -78 250 2 0 42 -18 89 -41z m-8279 -444
c55 -94 71 -154 57 -218 -7 -29 -17 -88 -22 -132 -6 -44 -13 -91 -16 -104 l-5
-24 -26 24 c-42 40 -114 146 -135 202 -40 103 -41 208 -7 377 l11 55 54 -60
c29 -33 69 -87 89 -120z m8850 103 c22 -104 28 -199 16 -263 -15 -82 -69 -188
-132 -258 -58 -65 -68 -63 -69 13 0 25 -7 76 -15 115 -29 135 -16 206 57 313
42 63 120 154 126 148 2 -3 10 -33 17 -68z m-8461 -98 c-33 -176 -84 -286
-169 -371 -50 -49 -137 -109 -159 -109 -15 0 2 172 25 246 26 83 71 147 141
202 52 40 170 113 174 109 2 -1 -4 -36 -12 -77z m8015 10 c134 -90 184 -158
216 -293 16 -67 20 -197 7 -197 -5 0 -35 17 -68 38 -135 88 -211 213 -250 410
-16 86 -17 102 -5 102 5 0 50 -27 100 -60z m-8481 -455 c54 -63 91 -138 93
-190 0 -22 -2 -75 -7 -117 -5 -62 -10 -78 -23 -78 -9 0 -28 -6 -43 -14 -26
-14 -29 -13 -62 24 -42 47 -84 127 -102 195 -15 53 -18 185 -8 273 l7 52 51
-47 c28 -27 70 -70 94 -98z m8996 113 c3 -13 6 -75 6 -139 0 -160 -28 -248
-114 -350 -29 -35 -31 -36 -61 -24 -16 8 -37 16 -46 18 -13 4 -18 26 -24 111
-7 104 -6 107 23 170 21 45 56 91 113 150 45 47 85 86 89 86 4 0 10 -10 14
-22z m-8598 -101 c-11 -167 -60 -300 -142 -387 l-44 -48 -37 19 c-21 11 -43
19 -50 19 -18 0 -17 84 3 171 20 90 77 168 186 254 45 36 84 65 87 65 2 0 1
-42 -3 -93z m8131 31 c69 -55 137 -127 160 -173 37 -71 59 -255 30 -255 -7 0
-29 -9 -49 -20 l-37 -19 -45 50 c-80 89 -128 222 -142 395 -8 100 -14 98 83
22z m-8357 -477 c31 -22 70 -88 70 -120 0 -14 -10 -45 -21 -69 -34 -69 -123
-101 -188 -67 -38 19 -78 68 -86 104 -15 68 38 152 107 172 33 10 89 0 118
-20z m8654 0 c99 -56 97 -199 -4 -251 -46 -24 -78 -25 -124 -6 -95 39 -118
162 -45 235 50 51 109 58 173 22z m-8515 -317 c83 -90 126 -190 155 -357 l13
-76 -36 19 c-76 39 -182 122 -220 173 -39 52 -76 151 -82 220 -3 33 0 39 41
66 53 35 57 33 129 -45z m8346 52 c20 -14 41 -26 47 -28 8 -3 8 -21 -1 -68
-31 -157 -84 -231 -235 -331 -68 -45 -92 -56 -94 -45 -5 23 27 173 51 236 29
78 91 173 144 220 25 22 47 40 49 40 2 0 19 -11 39 -24z m-8575 -36 c21 -5 26
-14 32 -54 3 -26 11 -61 17 -78 6 -17 11 -42 11 -55 0 -38 -37 -133 -74 -188
-35 -53 -113 -148 -126 -153 -10 -4 -27 75 -40 177 -16 121 14 249 80 342 22
30 20 30 100 9z m8796 -34 c51 -77 69 -147 67 -261 -1 -105 -21 -224 -38 -227
-18 -3 -124 133 -160 205 -38 76 -44 124 -24 219 6 29 13 62 15 74 2 14 15 23
46 30 24 6 48 10 53 9 6 -1 24 -23 41 -49z m-8595 -342 c89 -47 173 -135 221
-234 38 -80 85 -226 75 -236 -10 -10 -135 53 -204 102 -98 70 -152 169 -178
327 -15 93 -14 93 86 41z m8375 19 c-2 -10 -8 -43 -11 -73 -4 -30 -21 -91 -38
-135 -42 -107 -107 -172 -240 -240 -53 -27 -100 -46 -103 -42 -11 10 45 176
84 252 45 87 138 182 217 223 70 36 99 41 91 15z m-8497 -30 c6 -21 11 -46 11
-56 0 -10 12 -53 26 -95 31 -90 30 -178 -4 -256 -24 -52 -122 -206 -132 -206
-4 0 -20 42 -36 93 -37 120 -41 281 -7 364 23 57 110 193 123 193 5 0 14 -17
19 -37z m8602 -36 c97 -140 116 -282 62 -471 -15 -55 -32 -100 -38 -100 -16 1
-112 151 -136 213 -35 90 -36 143 -5 235 14 45 31 107 37 139 7 36 15 57 22
54 7 -2 33 -33 58 -70z m-8396 -372 c112 -42 210 -124 273 -229 31 -51 104
-217 98 -223 -6 -6 -171 58 -216 84 -65 37 -117 90 -155 158 -45 81 -91 235
-70 235 2 0 34 -11 70 -25z m8191 8 c-3 -10 -12 -47 -21 -83 -21 -84 -86 -201
-132 -239 -20 -17 -61 -43 -92 -59 -68 -36 -201 -85 -201 -74 0 5 11 36 25 71
79 203 205 335 370 387 54 17 57 17 51 -3z m-8276 -85 c12 -40 33 -93 45 -119
34 -66 40 -131 20 -208 -16 -63 -96 -234 -114 -245 -5 -4 -29 42 -52 101 -43
106 -43 110 -44 228 0 107 3 126 26 180 33 77 77 147 88 140 5 -3 19 -37 31
-77z m8375 -11 c58 -116 74 -204 56 -304 -14 -77 -81 -257 -96 -256 -13 1 -91
155 -110 217 -23 76 -20 167 9 224 13 26 31 72 40 102 26 83 38 110 47 110 4
0 29 -42 54 -93z m-8086 -346 c137 -52 245 -161 336 -342 l26 -51 -43 7 c-71
12 -169 45 -232 78 -86 45 -150 133 -206 278 -11 30 -20 57 -20 60 0 10 81 -7
139 -30z m7810 -66 c-42 -101 -107 -187 -172 -229 -67 -43 -287 -113 -287 -92
0 14 55 114 93 171 85 125 188 201 319 234 59 15 74 16 76 6 2 -8 -11 -48 -29
-90z m146 -90 c19 -76 19 -165 0 -240 -18 -69 -115 -259 -126 -248 -4 5 -24
51 -45 103 -30 77 -38 112 -41 185 -5 94 -3 101 65 220 6 11 26 52 43 90 l31
70 29 -60 c15 -33 35 -87 44 -120z m-8114 144 c5 -8 26 -52 49 -99 22 -47 48
-98 57 -115 39 -70 21 -220 -44 -365 l-30 -64 -36 64 c-54 98 -77 153 -93 233
-21 100 -8 185 49 320 20 47 33 55 48 26z m344 -374 c134 -35 248 -124 353
-278 l53 -77 -41 0 c-64 0 -188 29 -255 59 -76 35 -147 111 -203 219 -23 44
-42 83 -42 86 0 11 76 6 135 -9z m7436 -64 c-41 -80 -120 -181 -169 -213 -43
-29 -173 -66 -258 -74 l-78 -7 18 29 c147 229 301 340 479 343 l47 1 -39 -79z
m-7561 -18 c19 -36 53 -89 75 -117 56 -70 65 -96 65 -180 0 -71 -40 -260 -59
-279 -11 -11 -115 145 -149 225 -24 56 -27 76 -27 173 0 89 4 123 23 178 13
37 27 67 30 67 4 0 23 -30 42 -67z m7654 9 c43 -134 42 -259 -4 -366 -21 -50
-131 -226 -141 -226 -10 0 -48 140 -60 221 -15 107 -1 174 52 235 22 25 58 79
80 120 23 41 45 72 49 69 5 -3 15 -27 24 -53z m-7349 -335 c73 -56 107 -98
145 -180 27 -58 66 -214 56 -224 -9 -10 -156 69 -200 108 -83 73 -136 196
-136 315 l0 64 38 -19 c21 -10 64 -40 97 -64z m7115 41 c0 -65 -25 -170 -54
-225 -36 -72 -108 -138 -201 -184 -94 -48 -95 -47 -70 69 25 111 60 177 135
253 56 56 158 128 183 129 4 0 7 -19 7 -42z m-6199 -806 c159 -122 189 -161
189 -248 0 -38 -6 -51 -37 -85 -62 -66 -151 -63 -250 7 -55 39 -52 40 -121
-55 -62 -84 -65 -94 -40 -126 39 -49 11 -35 -101 51 -109 85 -141 120 -81 89
19 -10 36 -13 45 -7 19 10 295 370 296 386 3 22 -3 41 -17 57 -17 19 -18 35
-1 22 6 -6 60 -47 118 -91z m5189 63 c-33 -35 -27 -48 118 -246 149 -203 153
-207 194 -191 41 15 48 7 15 -18 -76 -60 -212 -158 -216 -155 -2 2 6 16 18 31
11 15 21 32 21 39 0 11 -101 156 -130 188 -8 9 -160 -99 -160 -113 0 -13 128
-177 143 -183 8 -3 27 1 42 9 15 8 29 14 32 14 17 0 -16 -30 -116 -104 -113
-85 -156 -108 -113 -63 12 13 22 34 22 46 0 23 -228 347 -276 392 -22 20 -26
21 -51 8 -16 -7 -31 -15 -35 -17 -5 -2 -8 0 -8 5 0 5 50 46 111 92 119 88 160
112 122 69 -13 -13 -23 -33 -23 -44 0 -19 108 -183 121 -184 13 0 154 112 151
121 -5 19 -114 161 -128 166 -8 3 -28 0 -45 -7 -60 -25 -37 -1 82 89 118 88
158 108 109 56z m-4742 -376 c133 -81 127 -77 120 -85 -4 -3 -16 -1 -28 6 -11
6 -29 8 -39 5 -23 -7 -261 -402 -261 -433 0 -12 11 -29 25 -38 14 -9 22 -20
19 -25 -4 -8 -221 118 -254 148 -18 16 -1 17 34 1 37 -16 50 -2 170 201 141
237 136 225 101 261 -45 47 -13 35 113 -41z m4186 -108 c25 -49 42 -91 39 -94
-3 -4 -21 5 -39 20 -76 57 -153 66 -232 27 -72 -36 -96 -83 -89 -171 8 -110
100 -268 178 -309 58 -29 155 -8 202 44 18 19 17 22 -18 92 l-37 73 -44 -7
c-30 -4 -43 -2 -39 4 9 15 246 132 253 125 3 -3 -4 -12 -16 -21 -29 -20 -28
-43 9 -116 38 -76 34 -96 -34 -149 -177 -142 -370 -157 -487 -39 -82 81 -112
212 -74 323 34 101 164 201 277 214 68 8 87 18 87 48 0 45 19 26 64 -64z
m-3719 -136 c94 -42 174 -80 179 -85 10 -10 -41 -140 -55 -140 -5 0 -9 23 -9
51 0 28 -5 59 -10 70 -13 23 -90 64 -100 52 -9 -10 -185 -409 -194 -440 -5
-17 0 -27 23 -44 17 -12 28 -25 26 -30 -6 -8 -275 111 -275 122 0 4 18 5 39 2
33 -5 41 -2 54 18 14 21 197 426 197 435 0 11 -64 34 -94 34 -27 0 -46 -9 -76
-36 -46 -42 -51 -30 -17 43 36 77 32 75 90 49 29 -13 129 -58 222 -101z m515
-185 c118 -34 223 -63 233 -66 11 -4 16 -12 13 -22 -3 -9 -12 -43 -21 -74 -19
-66 -35 -76 -35 -20 0 55 -31 98 -80 113 -24 7 -44 9 -49 3 -10 -11 -131 -443
-131 -468 0 -9 13 -25 30 -34 26 -15 40 -32 25 -32 -13 0 -262 73 -275 81 -11
6 -4 8 22 9 28 0 41 6 52 23 19 29 141 465 132 474 -3 3 -31 8 -61 11 -55 4
-56 4 -95 -38 -44 -48 -55 -49 -41 -4 6 16 15 48 21 72 9 33 15 42 28 38 9 -3
114 -32 232 -66z m2484 51 c74 -18 126 -98 112 -174 -4 -20 -22 -50 -42 -71
-20 -21 -34 -39 -32 -42 39 -38 237 -174 255 -174 45 0 22 -16 -63 -44 l-85
-28 -37 28 c-20 15 -76 58 -124 96 -80 62 -128 84 -128 58 0 -5 14 -53 30
-105 33 -100 47 -117 93 -108 15 3 27 1 27 -4 0 -4 -63 -28 -140 -52 -136 -43
-184 -49 -121 -16 44 22 41 44 -30 273 -79 254 -74 242 -121 242 -41 0 -52 15
-15 23 12 2 81 23 152 47 114 36 186 56 220 59 6 0 27 -4 49 -8z m-494 -130
c0 -5 -11 -12 -25 -15 -42 -11 -44 -38 -17 -231 16 -110 23 -194 18 -216 -18
-96 -110 -160 -233 -161 -74 0 -101 9 -145 50 -36 34 -43 57 -73 257 -34 227
-33 225 -87 225 -16 0 -28 4 -28 8 0 5 57 17 128 26 70 10 137 20 150 23 12 3
22 0 22 -6 0 -6 -6 -11 -14 -11 -8 0 -24 -8 -37 -19 l-23 -19 23 -168 c31
-226 39 -263 67 -291 50 -50 170 -20 200 52 19 46 18 95 -6 250 -31 203 -36
215 -86 215 -52 0 -20 18 49 27 99 14 117 14 117 4z m-1385 -51 c55 -29 59
-30 77 -14 10 10 20 15 23 12 7 -7 -16 -171 -25 -181 -5 -5 -11 6 -15 25 -11
51 -46 107 -81 128 -60 38 -145 21 -155 -30 -9 -42 14 -72 105 -139 115 -85
147 -125 154 -190 10 -112 -95 -204 -214 -187 -24 3 -67 18 -96 32 -50 25 -54
26 -80 11 -27 -15 -28 -15 -28 5 0 46 24 198 31 198 5 0 11 -17 15 -37 9 -52
36 -102 73 -137 42 -40 123 -48 164 -16 20 16 27 30 27 54 0 43 -26 75 -104
131 -122 87 -166 153 -152 228 23 123 155 173 281 107z m630 -46 c109 -53 113
-178 7 -233 l-36 -18 45 -20 c61 -28 90 -63 96 -115 6 -64 -21 -106 -92 -143
-56 -29 -60 -29 -242 -33 -128 -3 -188 -1 -196 7 -8 8 -6 11 9 11 11 0 30 7
42 16 22 15 22 18 22 264 0 236 -1 250 -19 260 -11 5 -29 10 -41 10 -13 0 -19
4 -14 11 4 8 63 10 193 7 159 -3 192 -7 226 -24z"/>
<path d="M4692 9783 c-21 -4 -22 -7 -16 -91 4 -48 9 -103 13 -122 7 -34 8 -35
46 -31 49 4 91 25 106 53 6 12 9 46 7 80 -3 46 -10 64 -30 84 -25 26 -79 37
-126 27z"/>
<path d="M4750 8725 l0 -115 -385 0 -385 0 0 -167 0 -167 60 -61 60 -61 -16
-114 c-16 -113 -17 -116 -59 -160 l-42 -45 -12 -180 c-6 -99 -14 -206 -18
-237 l-6 -58 -594 0 -594 0 4 -947 c5 -991 5 -1003 53 -1293 95 -571 321
-1098 666 -1552 316 -417 742 -789 1208 -1055 84 -48 84 -50 -4 -27 -404 103
-805 292 -1124 531 -120 89 -402 360 -402 384 1 8 22 31 48 51 68 55 122 106
122 116 0 5 -25 40 -57 78 -87 107 -158 221 -233 377 -115 239 -210 530 -272
833 -17 85 -35 151 -39 147 -6 -7 -208 -511 -221 -552 -4 -13 -222 179 -425
372 -24 23 -45 38 -48 35 -13 -13 91 -396 176 -644 56 -165 137 -369 181 -458
16 -32 27 -64 24 -71 -2 -7 -57 -43 -120 -80 -137 -79 -136 -78 -74 -198 172
-330 514 -707 910 -1005 373 -279 835 -501 1272 -611 65 -17 120 -32 121 -33
2 -2 7 -30 12 -62 7 -53 12 -62 39 -78 69 -40 154 -50 492 -55 441 -7 613 12
661 74 15 18 21 40 21 74 0 45 2 49 28 55 663 145 1316 513 1812 1020 152 155
272 302 366 445 75 114 154 257 154 281 0 20 -16 32 -140 105 -52 30 -98 59
-103 62 -4 4 11 48 34 97 62 133 140 338 203 532 63 196 149 515 144 539 -2
10 -49 -27 -143 -113 -78 -71 -182 -166 -232 -212 l-91 -83 -113 286 c-62 157
-116 285 -119 285 -4 0 -12 -35 -18 -78 -16 -102 -80 -357 -127 -502 -109
-339 -257 -630 -398 -786 -26 -29 -47 -61 -47 -73 0 -14 28 -45 85 -92 100
-85 104 -64 -53 -223 -289 -293 -646 -514 -1081 -672 -121 -44 -371 -117 -377
-111 -2 2 31 23 74 47 294 167 640 436 885 689 565 584 882 1235 999 2056 20
143 22 193 25 1123 l4 972 -595 0 -596 0 0 33 c0 17 -7 124 -15 237 l-16 205
-41 42 c-41 41 -42 44 -58 159 l-17 116 59 60 58 61 0 168 0 169 -382 2 -383
3 -3 113 -3 112 -389 0 -390 0 0 -115z m385 -115 l0 -45 -112 -3 -113 -3 0 51
0 51 113 -3 112 -3 0 -45z m245 0 l0 -51 -112 3 -113 3 -3 48 -3 47 115 0 116
0 0 -50z m-365 -110 l0 -45 -54 -3 c-51 -3 -56 -1 -92 34 -60 59 -54 65 54 62
l92 -3 0 -45z m240 0 l0 -45 -112 -3 -113 -3 0 51 0 51 113 -3 112 -3 0 -45z
m199 41 c4 -5 -13 -28 -36 -50 -39 -37 -48 -41 -95 -41 l-53 0 0 50 0 50 89 0
c50 0 92 -4 95 -9z m108 -318 l42 -43 -80 0 -81 0 -13 101 -12 101 48 49 49
50 3 -108 3 -108 41 -42z m-725 189 c24 -26 31 -41 27 -61 -7 -44 -24 -156
-24 -163 0 -5 -37 -8 -82 -8 l-82 0 42 43 42 43 0 95 c0 53 3 99 7 102 8 8 28
-7 70 -51z m-469 -24 l3 -48 -115 0 -116 0 0 50 0 51 113 -3 112 -3 3 -47z
m242 2 l0 -50 -115 0 -115 0 0 50 0 50 115 0 115 0 0 -50z m530 0 l0 -50 -100
0 -101 0 6 34 c4 20 2 36 -4 40 -30 19 -2 26 94 26 l105 0 0 -50z m210 35 c-8
-9 -10 -29 -7 -50 l6 -35 -100 0 -99 0 0 50 0 50 106 0 c94 0 105 -2 94 -15z
m550 -35 l0 -50 -115 0 -115 0 0 50 0 50 115 0 115 0 0 -50z m248 -2 l3 -48
-120 0 -121 0 0 43 c0 24 3 47 7 51 4 3 57 5 117 4 l111 -3 3 -47z m-1658
-118 l0 -50 -115 0 -115 0 0 50 0 50 115 0 115 0 0 -50z m200 41 c0 -5 -19
-28 -42 -50 -39 -37 -48 -41 -95 -41 l-53 0 0 50 0 50 95 0 c52 0 95 -4 95 -9z
m570 -41 l0 -50 -115 0 -115 0 0 50 0 50 115 0 115 0 0 -50z m520 0 l0 -50
-52 0 c-48 0 -56 4 -95 42 -24 23 -43 46 -43 50 0 4 43 8 95 8 l95 0 0 -50z
m240 0 l0 -50 -115 0 -115 0 0 50 0 50 115 0 115 0 0 -50z m200 38 c0 -7 -17
-29 -37 -50 -34 -35 -42 -38 -90 -38 l-53 0 0 50 0 50 90 0 c64 0 90 -4 90
-12z m-1852 -155 l-3 -48 -98 -3 -98 -3 7 36 c4 22 2 41 -6 50 -11 13 1 15 94
15 l107 0 -3 -47z m209 -3 l2 -50 -100 0 -99 0 0 50 0 50 98 0 97 0 2 -50z
m1323 0 l0 -50 -96 0 -97 0 6 39 c3 22 0 44 -6 50 -8 8 17 11 91 11 l102 0 0
-50z m212 0 l-4 -51 -96 3 -97 3 -3 48 -3 47 103 0 103 0 -3 -50z m-1627 -115
l0 -50 -112 -3 -113 -3 0 56 0 56 113 -3 112 -3 0 -50z m225 5 l0 -50 60 0 60
0 0 50 0 50 65 0 65 0 0 -50 0 -50 60 0 60 0 0 50 0 51 63 -3 62 -3 3 -47 3
-48 54 0 54 0 3 48 3 47 62 3 62 3 3 -48 3 -48 58 -3 57 -3 0 51 0 50 50 0
c57 0 55 6 39 -107 -10 -71 -15 -82 -54 -123 l-42 -45 -12 -190 c-6 -104 -14
-207 -17 -227 -6 -37 -7 -38 -50 -38 l-44 0 0 174 c0 219 -10 257 -90 337 -64
65 -123 89 -215 89 -115 0 -231 -81 -271 -189 -13 -35 -18 -89 -22 -228 l-4
-183 -44 0 c-33 0 -44 4 -44 15 0 9 -7 110 -15 227 l-16 211 -43 48 c-40 44
-44 55 -51 116 -3 38 -9 78 -12 91 -5 21 -2 22 46 22 l51 0 0 -50z m1310 -5
l0 -56 -112 3 -113 3 -3 39 c-6 65 -5 66 118 66 l110 0 0 -55z m-1652 -117 l3
-48 -126 0 c-121 0 -125 1 -115 19 5 11 10 30 10 44 0 13 3 27 7 31 4 3 54 5
112 4 l106 -3 3 -47z m237 15 c4 -21 11 -44 17 -50 8 -10 -16 -13 -116 -13
l-126 0 0 50 0 50 109 0 109 0 7 -37z m1295 -13 l0 -50 -119 0 -118 0 10 50
10 50 108 0 109 0 0 -50z m238 15 c2 -16 8 -34 13 -39 21 -22 3 -26 -116 -26
l-125 0 0 43 c0 24 3 47 7 51 4 3 54 5 112 4 l106 -3 3 -30z m-1898 -135 l0
-50 -95 0 -94 0 6 33 c10 57 27 67 110 67 l73 0 0 -50z m250 0 l0 -50 -115 0
-115 0 0 50 0 50 115 0 115 0 0 -50z m180 28 c8 -13 18 -35 21 -50 l6 -28 -98
0 -99 0 0 50 0 50 78 0 c69 0 79 -2 92 -22z m1110 -28 l0 -50 -95 0 -95 0 0
27 c0 15 10 37 22 50 19 20 31 23 95 23 l73 0 0 -50z m240 0 l0 -50 -115 0
-115 0 0 50 0 50 115 0 115 0 0 -50z m189 24 c12 -15 21 -37 21 -50 0 -24 -2
-24 -95 -24 l-95 0 0 50 0 50 74 0 c69 0 76 -2 95 -26z m-1841 -141 l-3 -48
-112 -3 -113 -3 0 51 0 50 116 0 115 0 -3 -47z m242 -3 l0 -50 -115 0 -115 0
0 50 0 50 115 0 115 0 0 -50z m1290 0 l0 -50 -115 0 -115 0 0 50 0 50 115 0
115 0 0 -50z m248 3 l-3 -48 -115 0 -115 0 -3 48 -3 47 121 0 121 0 -3 -47z
m-1908 -118 l0 -55 -100 0 -100 0 0 48 c0 27 3 52 7 55 3 4 48 7 100 7 l93 0
0 -55z m245 0 l0 -50 -112 -3 -113 -3 0 56 0 56 113 -3 112 -3 0 -50z m223 -3
l3 -53 -103 3 -103 3 -3 39 c-6 66 -4 67 105 64 l98 -3 3 -53z m1067 3 l0 -50
-94 -3 c-52 -1 -99 2 -104 7 -5 5 -7 29 -3 56 l7 46 97 -3 97 -3 0 -50z m245
0 l0 -56 -112 3 -113 3 -3 39 c-6 65 -5 66 118 66 l110 0 0 -55z m224 10 c4
-25 4 -49 1 -55 -3 -6 -50 -10 -106 -10 l-99 0 0 55 0 55 99 0 99 0 6 -45z
m-1876 -127 l3 -48 -115 0 -116 0 0 50 0 51 113 -3 112 -3 3 -47z m242 2 l0
-50 -115 0 -115 0 0 50 0 50 115 0 115 0 0 -50z m1290 0 l0 -50 -115 0 -115 0
0 50 0 50 115 0 115 0 0 -50z m248 -3 l3 -48 -118 3 -118 3 -3 33 c-6 62 -4
63 120 60 l113 -3 3 -48z m1262 -1039 c0 -869 -4 -969 -45 -1236 -37 -248
-116 -532 -213 -772 -286 -705 -847 -1336 -1572 -1767 -212 -126 -410 -217
-453 -209 -41 8 -253 111 -382 186 -315 181 -590 392 -850 654 -515 517 -846
1151 -965 1846 -51 300 -53 333 -57 1248 -3 475 -2 870 1 878 5 12 313 14
2271 14 l2265 0 0 -842z m-4651 -1846 c87 -322 199 -586 338 -800 29 -46 49
-81 44 -78 -5 4 -48 55 -95 114 -83 105 -150 162 -191 162 -11 0 -52 -24 -91
-52 -39 -29 -114 -82 -168 -117 -79 -52 -99 -62 -107 -50 -17 27 -127 295
-172 419 -25 69 -66 195 -91 280 -26 85 -49 161 -51 168 -2 6 -1 12 4 12 4 0
84 -70 177 -155 93 -85 173 -153 178 -152 5 2 46 96 90 209 45 114 84 204 87
200 4 -4 25 -76 48 -160z m4909 -47 c43 -110 84 -200 89 -200 6 0 86 69 179
153 93 85 170 149 172 144 5 -17 -81 -299 -153 -498 -51 -141 -155 -384 -165
-384 -10 0 -183 117 -262 176 -32 24 -69 46 -83 50 -45 11 -106 -36 -204 -160
-50 -63 -94 -117 -99 -120 -5 -3 15 31 45 77 74 111 191 353 248 512 48 132
135 426 135 454 0 33 22 -12 98 -204z m-4706 -737 c110 -139 167 -205 194
-225 l26 -19 -39 -32 c-48 -37 -40 -43 -130 93 -58 87 -143 244 -143 264 0 23
32 -5 92 -81z m4422 0 c-41 -81 -84 -151 -151 -246 l-44 -63 -40 32 -40 32 35
29 c19 15 82 89 140 162 99 126 127 154 134 135 2 -4 -13 -40 -34 -81z m-4537
-57 c157 -323 512 -682 925 -932 205 -125 501 -260 711 -325 31 -10 57 -21 57
-25 0 -3 -14 -9 -30 -13 -17 -3 -33 -13 -37 -22 -3 -9 6 -116 21 -238 15 -121
29 -243 32 -269 l6 -48 -38 7 c-132 23 -452 132 -639 216 -643 289 -1266 833
-1544 1350 l-40 74 127 76 c70 42 186 117 257 166 72 49 132 90 135 90 3 0 28
-48 57 -107z m4672 95 c28 -25 295 -199 399 -261 l101 -60 -41 -75 c-107 -196
-262 -395 -468 -601 -393 -393 -856 -685 -1370 -863 -141 -49 -368 -111 -377
-102 -3 2 8 107 23 233 16 125 29 251 29 278 0 48 -1 50 -32 60 -18 5 -33 12
-33 15 0 4 19 12 43 19 254 76 598 241 849 408 357 239 689 599 820 889 18 41
35 74 37 74 3 0 12 -6 20 -14z m-2827 -1546 c256 -54 721 -49 957 11 41 10 76
17 79 14 3 -2 -5 -85 -17 -182 -12 -98 -26 -234 -32 -303 -6 -68 -12 -127 -15
-129 -32 -32 -625 -55 -855 -32 -63 6 -131 16 -151 21 l-36 11 -6 67 c-6 71
-43 423 -53 506 -6 48 -5 49 18 42 13 -4 63 -15 111 -26z"/>
<path d="M2940 6423 c0 -917 10 -1080 81 -1425 86 -420 282 -868 532 -1223
282 -400 666 -759 1100 -1030 141 -88 364 -207 449 -239 l46 -18 144 69 c368
178 747 449 1043 747 591 595 918 1301 995 2151 6 63 10 458 10 918 l0 807
-2200 0 -2200 0 0 -757z m4355 -78 c0 -434 -4 -834 -8 -887 l-9 -97 -141 -3
-142 -3 -3 -152 -3 -153 116 0 c136 0 129 14 85 -158 -69 -275 -139 -461 -263
-705 -291 -574 -767 -1072 -1377 -1442 -121 -74 -382 -205 -406 -205 -53 0
-432 209 -634 349 -265 184 -598 493 -784 726 -260 327 -454 685 -571 1055
-29 90 -95 345 -95 365 0 12 21 15 115 15 l116 0 -3 153 -3 152 -137 3 -137 3
-5 27 c-21 97 -39 1726 -19 1745 3 4 974 6 2157 5 l2151 -3 0 -790z"/>
<path d="M3187 7063 c-12 -11 -8 -1273 3 -1273 7 0 10 220 10 640 0 352 -1
640 -3 640 -2 0 -7 -3 -10 -7z"/>
<path d="M3300 6431 c0 -421 3 -641 10 -641 7 0 10 218 10 634 0 413 -4 637
-10 641 -7 4 -10 -210 -10 -634z"/>
<path d="M3417 7063 c-12 -11 -8 -1273 3 -1273 7 0 10 220 10 640 0 352 -1
640 -3 640 -2 0 -7 -3 -10 -7z"/>
<path d="M3530 6431 c0 -421 3 -641 10 -641 7 0 10 218 10 634 0 413 -4 637
-10 641 -7 4 -10 -210 -10 -634z"/>
<path d="M4560 6431 c0 -421 3 -641 10 -641 7 0 10 218 10 634 0 413 -4 637
-10 641 -7 4 -10 -210 -10 -634z"/>
<path d="M4677 7063 c-12 -11 -8 -1273 3 -1273 7 0 10 220 10 640 0 352 -1
640 -3 640 -2 0 -7 -3 -10 -7z"/>
<path d="M4790 6431 c0 -421 3 -641 10 -641 7 0 10 218 10 634 0 413 -4 637
-10 641 -7 4 -10 -210 -10 -634z"/>
<path d="M4907 7063 c-12 -11 -8 -1273 3 -1273 7 0 10 220 10 640 0 352 -1
640 -3 640 -2 0 -7 -3 -10 -7z"/>
<path d="M5020 6431 c0 -421 3 -641 10 -641 7 0 10 218 10 634 0 413 -4 637
-10 641 -7 4 -10 -210 -10 -634z"/>
<path d="M5137 7063 c-12 -11 -8 -1273 3 -1273 7 0 10 220 10 640 0 352 -1
640 -3 640 -2 0 -7 -3 -10 -7z"/>
<path d="M5250 6431 c0 -421 3 -641 10 -641 7 0 10 218 10 634 0 413 -4 637
-10 641 -7 4 -10 -210 -10 -634z"/>
<path d="M5367 7063 c-12 -11 -8 -1273 3 -1273 7 0 10 220 10 640 0 352 -1
640 -3 640 -2 0 -7 -3 -10 -7z"/>
<path d="M5480 6431 c0 -421 3 -641 10 -641 7 0 10 218 10 634 0 413 -4 637
-10 641 -7 4 -10 -210 -10 -634z"/>
<path d="M5590 6431 c0 -421 3 -641 10 -641 7 0 10 218 10 634 0 413 -4 637
-10 641 -7 4 -10 -210 -10 -634z"/>
<path d="M5710 6431 c0 -421 3 -641 10 -641 7 0 10 218 10 634 0 413 -4 637
-10 641 -7 4 -10 -210 -10 -634z"/>
<path d="M5820 6431 c0 -421 3 -641 10 -641 7 0 10 218 10 634 0 413 -4 637
-10 641 -7 4 -10 -210 -10 -634z"/>
<path d="M6740 6431 c0 -421 3 -641 10 -641 7 0 10 218 10 634 0 413 -4 637
-10 641 -7 4 -10 -210 -10 -634z"/>
<path d="M6857 7063 c-12 -11 -8 -1273 3 -1273 7 0 10 220 10 640 0 352 -1
640 -3 640 -2 0 -7 -3 -10 -7z"/>
<path d="M6970 6431 c0 -421 3 -641 10 -641 7 0 10 218 10 634 0 413 -4 637
-10 641 -7 4 -10 -210 -10 -634z"/>
<path d="M7087 7063 c-12 -11 -8 -1273 3 -1273 7 0 10 220 10 640 0 352 -1
640 -3 640 -2 0 -7 -3 -10 -7z"/>
<path d="M7200 6431 c0 -421 3 -641 10 -641 7 0 10 218 10 634 0 413 -4 637
-10 641 -7 4 -10 -210 -10 -634z"/>
<path d="M3070 6425 c0 -417 3 -635 10 -635 7 0 10 218 10 635 0 417 -3 635
-10 635 -7 0 -10 -218 -10 -635z"/>
<path d="M3938 6710 c-148 -25 -257 -152 -266 -309 -5 -96 20 -169 84 -240
177 -197 493 -114 560 148 38 149 -42 311 -185 374 -66 29 -128 38 -193 27z"/>
<path d="M6237 6709 c-70 -11 -129 -43 -182 -100 -67 -72 -89 -126 -89 -224 0
-65 4 -90 26 -136 97 -210 366 -261 528 -99 66 66 95 138 94 235 0 107 -27
167 -105 239 -79 73 -168 101 -272 85z"/>
<path d="M3322 5538 l3 -153 150 0 150 0 3 153 3 152 -156 0 -156 0 3 -152z"/>
<path d="M3992 5538 l3 -153 150 0 150 0 0 150 0 150 -153 3 -153 3 3 -153z"/>
<path d="M4660 5535 l0 -155 150 0 150 0 0 155 0 155 -150 0 -150 0 0 -155z"/>
<path d="M5330 5535 l0 -156 148 3 147 3 3 153 3 152 -151 0 -150 0 0 -155z"/>
<path d="M5992 5538 l3 -153 150 0 150 0 3 153 3 152 -156 0 -156 0 3 -152z"/>
<path d="M6662 5538 l3 -153 150 0 150 0 3 153 3 152 -156 0 -156 0 3 -152z"/>
<path d="M3667 5354 c-4 -4 -7 -74 -7 -156 l0 -148 150 0 151 0 -3 153 -3 152
-141 3 c-77 1 -143 -1 -147 -4z"/>
<path d="M4324 5347 c-2 -7 -3 -76 -2 -152 l3 -140 153 -3 153 -3 -3 153 -3
153 -148 3 c-115 2 -149 0 -153 -11z"/>
<path d="M4997 5354 c-4 -4 -7 -74 -7 -156 l0 -148 155 0 156 0 -3 153 -3 152
-146 3 c-80 1 -148 -1 -152 -4z"/>
<path d="M5667 5353 c-4 -3 -7 -73 -7 -155 l0 -149 153 3 152 3 3 144 c2 109
-1 146 -10 153 -16 9 -282 11 -291 1z"/>
<path d="M6337 5354 c-4 -4 -7 -74 -7 -156 l0 -148 150 0 151 0 -3 153 -3 152
-141 3 c-77 1 -143 -1 -147 -4z"/>
<path d="M3327 5013 c-4 -3 -7 -73 -7 -155 l0 -148 155 0 155 0 0 155 0 155
-148 0 c-82 0 -152 -3 -155 -7z"/>
<path d="M3990 4865 l0 -156 153 3 152 3 0 150 0 150 -152 3 -153 3 0 -156z"/>
<path d="M4660 4865 l0 -155 150 0 150 0 0 155 0 155 -150 0 -150 0 0 -155z"/>
<path d="M5330 4865 l0 -155 150 0 150 0 0 155 0 155 -150 0 -150 0 0 -155z"/>
<path d="M5994 5007 c-2 -7 -3 -76 -2 -152 l3 -140 153 -3 152 -3 0 156 0 155
-150 0 c-114 0 -152 -3 -156 -13z"/>
<path d="M6660 4865 l0 -156 153 3 152 3 0 150 0 150 -152 3 -153 3 0 -156z"/>
<path d="M3640 4226 c0 -246 4 -387 10 -391 7 -4 10 127 10 384 0 254 -4 391
-10 391 -6 0 -10 -135 -10 -384z"/>
<path d="M3760 4146 c0 -299 4 -467 10 -471 7 -4 10 153 10 464 0 307 -3 471
-10 471 -7 0 -10 -161 -10 -464z"/>
<path d="M3870 4081 c0 -343 4 -532 10 -536 7 -4 10 175 10 529 0 351 -3 536
-10 536 -7 0 -10 -183 -10 -529z"/>
<path d="M3990 4016 c0 -386 4 -597 10 -601 7 -4 10 197 10 594 0 394 -3 601
-10 601 -7 0 -10 -205 -10 -594z"/>
<path d="M4100 3961 c0 -423 3 -652 10 -656 7 -4 10 215 10 649 0 431 -3 656
-10 656 -7 0 -10 -223 -10 -649z"/>
<path d="M4220 3905 c0 -463 3 -705 10 -705 7 0 10 242 10 705 0 463 -3 705
-10 705 -7 0 -10 -242 -10 -705z"/>
<path d="M4330 3861 c0 -489 3 -752 10 -756 7 -4 10 248 10 749 0 497 -3 756
-10 756 -7 0 -10 -256 -10 -749z"/>
<path d="M4450 3815 c0 -523 3 -795 10 -795 7 0 10 272 10 795 0 523 -3 795
-10 795 -7 0 -10 -272 -10 -795z"/>
<path d="M4560 3776 c0 -546 3 -837 10 -841 7 -4 10 277 10 834 0 554 -3 841
-10 841 -7 0 -10 -285 -10 -834z"/>
<path d="M4680 3736 c0 -577 3 -876 10 -876 7 0 10 296 10 869 0 569 -3 872
-10 876 -7 4 -10 -288 -10 -869z"/>
<path d="M5590 3735 c0 -577 3 -875 10 -875 7 0 10 298 10 875 0 577 -3 875
-10 875 -7 0 -10 -298 -10 -875z"/>
<path d="M5710 3769 c0 -557 3 -838 10 -834 7 4 10 295 10 841 0 549 -3 834
-10 834 -7 0 -10 -287 -10 -841z"/>
<path d="M5820 3809 c0 -531 3 -798 10 -794 7 4 10 282 10 801 0 523 -3 794
-10 794 -7 0 -10 -274 -10 -801z"/>
<path d="M5940 3854 c0 -501 3 -753 10 -749 7 4 10 267 10 756 0 493 -3 749
-10 749 -7 0 -10 -259 -10 -756z"/>
<path d="M6050 3905 c0 -463 3 -705 10 -705 7 0 10 242 10 705 0 463 -3 705
-10 705 -7 0 -10 -242 -10 -705z"/>
<path d="M6170 3954 c0 -434 3 -653 10 -649 7 4 10 233 10 656 0 426 -3 649
-10 649 -7 0 -10 -225 -10 -656z"/>
<path d="M6280 4009 c0 -397 3 -598 10 -594 6 4 10 215 10 601 0 389 -3 594
-10 594 -7 0 -10 -207 -10 -601z"/>
<path d="M6400 4074 c0 -354 3 -533 10 -529 6 4 10 193 10 536 0 346 -3 529
-10 529 -7 0 -10 -185 -10 -536z"/>
<path d="M6510 4139 c0 -311 3 -468 10 -464 6 4 10 172 10 471 0 303 -3 464
-10 464 -7 0 -10 -164 -10 -471z"/>
<path d="M6620 4220 c0 -253 4 -390 10 -390 6 0 10 137 10 390 0 253 -4 390
-10 390 -6 0 -10 -137 -10 -390z"/>
<path d="M5055 4177 c-63 -21 -97 -42 -142 -89 -63 -65 -93 -137 -93 -225 0
-132 60 -237 171 -298 50 -28 62 -30 154 -30 92 0 104 2 154 30 142 79 208
255 154 409 -25 69 -108 157 -175 186 -64 28 -167 35 -223 17z"/>
<path d="M4790 3226 c0 -284 3 -436 10 -436 7 0 10 150 10 429 0 276 -4 432
-10 436 -7 4 -10 -142 -10 -429z"/>
<path d="M5488 3654 c-5 -4 -8 -203 -8 -443 0 -293 3 -432 10 -425 7 7 9 161
8 443 -2 238 -6 429 -10 425z"/>
<path d="M4910 3125 c0 -268 3 -404 10 -400 6 4 10 148 10 400 0 252 -4 396
-10 400 -7 4 -10 -132 -10 -400z"/>
<path d="M5020 3071 c0 -256 4 -402 10 -406 7 -4 10 132 10 399 0 264 -3 406
-10 406 -6 0 -10 -140 -10 -399z"/>
<path d="M5250 3064 c0 -267 3 -403 10 -399 6 4 10 150 10 406 0 259 -4 399
-10 399 -7 0 -10 -142 -10 -406z"/>
<path d="M5140 3035 c0 -282 3 -424 10 -420 6 4 10 155 10 420 0 265 -4 416
-10 420 -7 4 -10 -138 -10 -420z"/>
<path d="M2712 3609 c0 -13 -34 -86 -77 -162 -42 -76 -75 -142 -73 -146 2 -5
66 9 143 31 80 22 156 38 176 36 l37 -3 -27 37 c-22 31 -27 34 -29 17 -2 -10
-11 -23 -20 -28 -22 -11 -213 -64 -217 -59 -2 2 24 52 57 111 49 88 64 108 79
104 26 -7 23 2 -15 47 -31 36 -34 37 -34 15z"/>
<path d="M2954 3314 c6 -18 -10 -38 -94 -115 -59 -55 -109 -94 -121 -93 -10 0
-19 -2 -19 -5 1 -3 36 -44 79 -90 l78 -83 39 21 39 21 -37 -6 c-33 -5 -41 -2
-82 36 -25 24 -46 50 -46 59 0 9 22 35 49 58 l49 43 32 -37 c22 -25 30 -43 27
-59 -6 -32 3 -30 41 9 l33 34 -28 -4 c-22 -4 -36 3 -63 32 l-35 37 49 44 49
45 24 -23 c51 -47 66 -77 54 -104 -14 -31 -1 -31 22 1 17 24 17 24 -54 102
-40 43 -76 83 -82 88 -6 6 -7 2 -3 -11z"/>
<path d="M3167 3081 c3 -14 -21 -48 -86 -120 -51 -55 -96 -103 -102 -106 -5
-4 -16 -1 -24 5 -30 25 -13 3 29 -39 34 -33 44 -39 39 -23 -4 16 7 36 37 72
37 44 45 49 57 37 11 -11 12 -30 3 -107 -10 -90 -10 -94 11 -117 28 -28 44
-30 29 -2 -7 12 -9 43 -5 77 11 105 10 103 56 96 33 -6 44 -3 64 16 29 27 33
78 10 113 -24 37 -124 119 -118 98z"/>
<path d="M3429 2852 c10 -19 3 -32 -55 -109 -99 -131 -113 -144 -138 -132 -22
11 37 -45 65 -61 13 -7 15 -5 12 13 -3 16 19 52 78 130 73 95 86 108 108 104
l25 -5 -25 19 c-13 11 -37 29 -53 41 l-28 21 11 -21z"/>
<path d="M3547 2736 c-17 -25 -17 -25 16 -20 22 3 40 -1 56 -14 28 -22 30 -17
-66 -165 -60 -93 -66 -99 -91 -92 -24 6 -23 4 10 -19 21 -14 48 -30 60 -37 21
-11 22 -11 9 5 -15 17 -20 7 105 208 16 26 34 48 40 48 24 0 64 -42 64 -68 0
-25 1 -25 15 -6 8 10 15 24 15 30 0 9 -57 50 -191 138 -26 16 -27 16 -42 -8z"/>
<path d="M3805 2435 c-66 -58 -131 -108 -144 -112 -24 -6 -23 -6 10 -24 42
-22 55 -24 39 -4 -11 13 -8 21 15 45 35 36 42 37 105 5 45 -23 50 -29 50 -59
0 -46 -9 -66 -29 -66 -9 -1 4 -12 29 -25 52 -28 67 -31 50 -10 -12 15 -9 140
7 298 3 31 2 57 -3 57 -5 0 -63 -48 -129 -105z"/>
<path d="M4175 2422 c-35 -7 -65 -43 -65 -78 0 -24 13 -49 55 -99 58 -71 67
-102 38 -130 -35 -35 -115 7 -129 69 l-7 31 -13 -35 c-17 -47 -17 -50 2 -50 9
0 30 -10 47 -22 48 -35 111 -32 144 6 37 43 27 83 -41 163 -60 70 -67 90 -36
118 40 36 110 -9 110 -71 0 -40 15 -38 23 3 3 16 9 37 13 47 5 14 4 17 -5 12
-6 -4 -24 0 -38 9 -32 21 -72 32 -98 27z"/>
<path d="M7510 3546 c0 -8 -13 -24 -29 -36 -52 -36 -60 -110 -16 -147 34 -30
57 -29 133 7 93 44 142 38 142 -17 0 -55 -56 -96 -116 -86 -29 5 -29 5 8 -21
40 -28 48 -31 48 -16 0 6 18 28 40 50 33 33 40 47 40 79 0 24 -8 48 -21 65
-28 35 -73 34 -150 -5 -39 -19 -72 -29 -92 -27 -29 3 -32 7 -35 39 -4 51 35
83 93 76 l40 -6 -25 20 c-44 35 -60 41 -60 25z"/>
<path d="M7308 3276 c-27 -32 -27 -33 -5 -29 33 6 187 -153 187 -193 0 -40
-34 -92 -65 -100 -43 -11 -68 3 -154 82 -67 63 -82 82 -78 101 2 12 4 23 3 23
-1 0 -18 -20 -39 -44 -27 -33 -32 -43 -17 -39 14 4 41 -16 99 -71 118 -113
157 -120 230 -41 34 37 41 51 41 86 0 39 -6 48 -90 134 -65 66 -89 97 -84 108
9 24 3 20 -28 -17z"/>
<path d="M6939 2924 c-52 -42 -95 -80 -97 -84 -1 -4 6 -18 17 -31 l20 -24 -6
23 c-4 17 2 31 23 53 15 16 31 29 35 29 5 0 95 -109 172 -208 8 -10 7 -20 -2
-33 -11 -18 -10 -19 6 -10 10 6 34 24 53 40 27 23 30 29 13 25 -17 -5 -36 11
-103 93 -108 130 -107 127 -69 154 27 19 36 21 62 11 l30 -11 -23 24 c-13 14
-27 25 -30 25 -4 0 -49 -34 -101 -76z"/>
<path d="M6600 2679 c-41 -28 -66 -48 -54 -45 26 8 35 -2 118 -133 55 -87 64
-107 55 -123 -9 -16 0 -13 38 12 61 42 63 44 36 36 -19 -6 -28 1 -59 48 -55
84 -38 93 81 46 42 -16 81 -30 88 -30 6 0 25 11 41 24 l30 23 -33 -5 c-29 -4
-144 29 -164 47 -4 4 0 24 8 45 15 35 15 40 -3 69 -15 27 -24 32 -62 35 -40 2
-54 -4 -120 -49z"/>
<path d="M6395 2560 c-27 -16 -43 -30 -33 -30 16 0 29 -21 119 -188 29 -54 32
-65 21 -82 -11 -18 -7 -18 40 7 42 22 49 28 32 31 -15 2 -32 22 -52 60 -111
210 -104 193 -86 213 23 25 18 24 -41 -11z"/>
<path d="M6205 2461 c-35 -16 -37 -18 -17 -23 21 -6 22 -12 22 -96 0 -49 3
-104 6 -121 4 -20 3 -31 -5 -31 -6 0 -50 38 -98 84 -75 73 -85 87 -74 100 18
21 13 20 -50 -8 -36 -17 -47 -25 -32 -25 14 -1 67 -44 144 -116 68 -63 125
-115 129 -115 3 0 4 74 2 164 -3 111 -1 170 7 185 7 11 10 21 9 20 -2 0 -21
-8 -43 -18z"/>
<path d="M5490 2118 c-41 -5 -76 -10 -77 -12 -2 -1 -5 -18 -9 -37 -5 -32 -4
-33 10 -15 10 13 36 22 77 28 34 4 64 6 67 3 2 -2 -9 -71 -26 -152 -26 -130
-28 -172 -5 -149 3 3 18 72 34 153 16 81 31 158 34 171 6 25 11 24 -105 10z"/>
<path d="M4936 2091 c-3 -4 -10 -20 -16 -35 l-10 -26 28 20 c24 18 36 20 85
14 31 -4 57 -10 57 -14 0 -4 -22 -68 -50 -141 -55 -149 -55 -149 -37 -149 12
0 127 299 127 329 0 13 -176 16 -184 2z"/>
<path d="M5195 2075 c-33 -32 -31 -67 5 -109 l31 -34 -25 -25 c-36 -37 -43
-73 -19 -105 42 -57 142 -50 168 11 17 41 8 72 -32 108 l-36 31 32 28 c59 55
29 120 -54 120 -35 0 -52 -6 -70 -25z"/>
<path d="M7813 8829 c-58 -29 -164 -143 -202 -219 -56 -113 -35 -201 56 -231
70 -23 161 30 244 141 112 148 118 264 19 315 -39 20 -67 19 -117 -6z"/>
<path d="M2543 1866 c-40 -52 -73 -99 -73 -104 0 -13 45 -34 75 -34 54 0 125
79 125 138 0 23 -9 44 -27 64 l-28 31 -72 -95z"/>
<path d="M6313 1268 c-18 -6 -33 -17 -33 -25 0 -16 60 -215 67 -222 8 -10 79
22 106 47 34 32 36 86 7 147 -29 61 -73 76 -147 53z"/>
<path d="M5050 979 l0 -112 46 6 c78 8 114 64 93 141 -12 44 -58 76 -106 76
l-33 0 0 -111z"/>
<path d="M5050 716 c0 -130 6 -142 68 -133 55 9 92 54 92 113 0 83 -49 134
-130 134 l-30 0 0 -114z"/>
</g>
</svg>
